<?xml version="1.0" encoding="UTF-8"?>
<svg version="1.1" xmlns="http://www.w3.org/2000/svg" width="443" height="159">
<path d="M0 0 C1.81077804 1.48154567 3.49302053 2.95281216 5.0625 4.6875 C5.7225 2.7075 6.3825 0.7275 7.0625 -1.3125 C9.0425 -1.3125 11.0225 -1.3125 13.0625 -1.3125 C12.50703116 8.06017228 11.14240004 17.23196842 9.58837891 26.47924805 C9.1866695 28.87996329 8.79805719 31.28256656 8.41015625 33.68554688 C4.8626843 55.26558251 4.8626843 55.26558251 -2.8359375 61.3125 C-8.63258059 65.1050992 -15.21424583 65.36956926 -21.9375 64.6875 C-27.79381141 62.95940811 -30.56768494 60.58904917 -33.9375 55.6875 C-33.9375 54.6975 -33.9375 53.7075 -33.9375 52.6875 C-31.9575 52.0275 -29.9775 51.3675 -27.9375 50.6875 C-27.56625 51.47125 -27.195 52.255 -26.8125 53.0625 C-24.38966522 56.45446869 -23.01788961 56.93187229 -18.9375 57.6875 C-14.39221554 57.75266537 -10.7501676 57.0336362 -6.5625 55.25 C-2.84264826 51.61871616 -2.02206935 47.6727135 -0.9375 42.6875 C-1.2675 42.3575 -1.5975 42.0275 -1.9375 41.6875 C-2.865625 42.3475 -3.79375 43.0075 -4.75 43.6875 C-9.63464412 46.4773069 -14.46062086 46.36590497 -19.9375 45.6875 C-24.6690171 44.05297591 -27.41007385 42.02023055 -29.9375 37.6875 C-32.6512951 29.15443294 -32.36677816 21.18116173 -28.7421875 12.984375 C-22.96850787 2.44662091 -12.2106984 -5.45584397 0 0 Z M-17.9375 8.6875 C-23.01733046 14.74576747 -25.33335134 21.51014474 -24.8125 29.375 C-24.23194434 33.42490031 -22.92053282 35.79486212 -19.9375 38.6875 C-16.73571961 40.28839019 -13.41981013 40.0448266 -9.9375 39.6875 C-3.90845602 37.48458008 -1.34639261 34.10274448 1.8125 28.6875 C4.09058585 22.96082011 4.42287891 15.33518266 2.265625 9.55078125 C0.49348402 6.73580346 -0.76366383 5.74544539 -3.9375 4.6875 C-9.52589713 4.15015412 -13.63682592 5.03346665 -17.9375 8.6875 Z " fill="#18317A" transform="translate(70.9375,64.3125)"/>
<path d="M0 0 C2.95700085 3.49463737 3.72974502 6.91690191 4.0625 11.4375 C3.16384902 16.3800804 0.04808949 18.60159979 -3.9375 21.4375 C-12.27171574 24.98397478 -21.05083161 24.5577707 -29.9375 24.4375 C-29.68129316 26.0440676 -29.40694129 27.6477483 -29.125 29.25 C-28.97417969 30.14332031 -28.82335937 31.03664062 -28.66796875 31.95703125 C-27.87276553 34.65732025 -27.11059845 35.70230552 -24.9375 37.4375 C-21.23056332 39.29096834 -16.98313761 38.89808028 -12.9375 38.4375 C-9.55127224 36.7643025 -9.55127224 36.7643025 -6.9375 34.4375 C-5.761875 33.57125 -5.761875 33.57125 -4.5625 32.6875 C-4.02625 32.275 -3.49 31.8625 -2.9375 31.4375 C-1.6175 32.0975 -0.2975 32.7575 1.0625 33.4375 C-0.05858168 38.20209713 -2.74247266 40.43878738 -6.59765625 43.13671875 C-12.73550628 46.54891251 -19.16834239 47.13653163 -25.8984375 45.2578125 C-30.57072882 43.37815507 -33.19979579 40.66700701 -35.8125 36.3125 C-38.7383406 28.28385407 -37.31817346 19.08849783 -33.9375 11.4375 C-29.86352106 4.40062728 -24.49636272 -0.80611448 -16.5625 -3 C-10.4774584 -4.09032315 -5.40204396 -2.87342764 0 0 Z M-25.1875 9.8125 C-27.06038444 12.62182665 -27.93069207 15.23161159 -28.9375 18.4375 C-16.48317357 19.28549487 -16.48317357 19.28549487 -4.9375 15.4375 C-3.34776274 12.94291229 -2.90671837 11.85818231 -3.125 8.875 C-4.02854765 6.16435706 -4.71071825 5.18711423 -6.9375 3.4375 C-14.74960194 1.9449986 -19.78808737 4.11312 -25.1875 9.8125 Z " fill="#18317C" transform="translate(253.9375,65.5625)"/>
<path d="M0 0 C3.66457897 3.76101526 5.375 7.20847176 5.375 12.5 C3.85110609 16.97643835 1.67128219 20.19548573 -2.48828125 22.4453125 C-10.9709045 25.8383618 -19.629441 25.55924441 -28.625 25.4375 C-28.36879316 27.0440676 -28.09444129 28.6477483 -27.8125 30.25 C-27.66167969 31.14332031 -27.51085937 32.03664062 -27.35546875 32.95703125 C-26.56026553 35.65732025 -25.79809845 36.70230552 -23.625 38.4375 C-19.91806332 40.29096834 -15.67063761 39.89808028 -11.625 39.4375 C-8.23877224 37.7643025 -8.23877224 37.7643025 -5.625 35.4375 C-4.449375 34.57125 -4.449375 34.57125 -3.25 33.6875 C-2.71375 33.275 -2.1775 32.8625 -1.625 32.4375 C-0.305 33.0975 1.015 33.7575 2.375 34.4375 C1.25391832 39.20209713 -1.42997266 41.43878738 -5.28515625 44.13671875 C-11.42300628 47.54891251 -17.85584239 48.13653163 -24.5859375 46.2578125 C-29.23356964 44.38807543 -31.8636561 41.68102836 -34.5 37.375 C-37.39907209 29.37217225 -36.11326714 20.6741022 -32.94921875 12.98046875 C-29.79365656 6.92067233 -25.34225714 1.8372375 -19 -0.9375 C-12.60259075 -2.62102875 -6.07651083 -2.6191857 0 0 Z M-23.875 10.8125 C-25.74788444 13.62182665 -26.61819207 16.23161159 -27.625 19.4375 C-15.17067357 20.28549487 -15.17067357 20.28549487 -3.625 16.4375 C-1.85126814 13.70439116 -1.61261739 12.64387682 -1.8125 9.3125 C-2.37411961 6.13542816 -2.37411961 6.13542816 -5.625 4.4375 C-13.55853789 3.26317253 -18.33111627 4.96062273 -23.875 10.8125 Z " fill="#19327C" transform="translate(125.625,64.5625)"/>
<path d="M0 0 C3.02443684 1.90150237 4.55219513 4.00863569 5.890625 7.2421875 C6.71924864 12.03948223 6.39095754 15.37064049 3.953125 19.6171875 C-1.40837536 25.11577167 -10.45272685 26.14431148 -17.7578125 26.33984375 C-18.98757813 26.32824219 -20.21734375 26.31664063 -21.484375 26.3046875 C-23.35222656 26.29115234 -23.35222656 26.29115234 -25.2578125 26.27734375 C-26.66933594 26.25994141 -26.66933594 26.25994141 -28.109375 26.2421875 C-27.71154621 28.01734779 -27.29033839 29.78727913 -26.859375 31.5546875 C-26.62734375 32.54082031 -26.3953125 33.52695313 -26.15625 34.54296875 C-24.94259978 37.67219377 -24.04777054 38.67085299 -21.109375 40.2421875 C-16.21740605 41.15174957 -11.55733241 40.85568521 -7.171875 38.4296875 C-4.88836614 36.79860974 -2.91702831 35.36883845 -1.109375 33.2421875 C0.540625 33.9021875 2.190625 34.5621875 3.890625 35.2421875 C2.7770376 39.97493396 0.13067134 42.25144715 -3.69921875 44.94140625 C-9.11681382 47.86532709 -15.29240543 48.87092602 -21.359375 47.7421875 C-26.48916029 46.10614487 -30.80665855 42.76106116 -33.28515625 37.96875 C-35.74553963 29.82966185 -34.87502317 20.77348384 -31.109375 13.2421875 C-24.78137188 1.94218192 -13.00189541 -4.67105131 0 0 Z M-22.65234375 11.18359375 C-25.43738735 15.36378956 -25.43738735 15.36378956 -26.109375 20.2421875 C-14.26528665 20.78044527 -14.26528665 20.78044527 -3.109375 17.2421875 C-0.75298092 15.30329504 -0.75298092 15.30329504 -0.734375 11.8046875 C-0.79572884 8.32178201 -0.79572884 8.32178201 -2.546875 6.3046875 C-9.94701823 3.23633543 -17.65178261 4.89174847 -22.65234375 11.18359375 Z " fill="#162F77" transform="translate(374.109375,63.7578125)"/>
<path d="M0 0 C4.24802414 2.2207675 6.67743049 5.11957278 8.86328125 9.31640625 C8.86328125 10.63640625 8.86328125 11.95640625 8.86328125 13.31640625 C6.88328125 13.64640625 4.90328125 13.97640625 2.86328125 14.31640625 C-0.13671875 9.56640625 -0.13671875 9.56640625 -0.13671875 7.31640625 C-4.02899091 6.0189822 -8.08404973 5.83298649 -12.13671875 6.31640625 C-14.95452409 7.70525873 -14.95452409 7.70525873 -17.13671875 9.31640625 C-17.79671875 9.31640625 -18.45671875 9.31640625 -19.13671875 9.31640625 C-19.8244628 10.63899097 -20.48383248 11.97627128 -21.13671875 13.31640625 C-21.65234375 14.32703125 -22.16796875 15.33765625 -22.69921875 16.37890625 C-25.17239382 22.27647757 -26.29028232 29.31939599 -23.88671875 35.37890625 C-22.30332953 38.51655042 -22.30332953 38.51655042 -19.13671875 40.31640625 C-13.67503671 41.10395216 -9.66632714 40.61066689 -5.13671875 37.31640625 C-4.47671875 37.31640625 -3.81671875 37.31640625 -3.13671875 37.31640625 C-2.47671875 35.66640625 -1.81671875 34.01640625 -1.13671875 32.31640625 C1.83328125 32.81140625 1.83328125 32.81140625 4.86328125 33.31640625 C4.37406032 37.55875488 3.32704097 39.2990165 0.05078125 42.00390625 C-0.63628906 42.58527344 -1.32335937 43.16664062 -2.03125 43.765625 C-6.68777811 47.19538689 -11.24460933 48.66117972 -17.12109375 48.140625 C-22.60198195 47.08905924 -26.61013635 44.65252076 -30.13671875 40.31640625 C-33.76296171 33.91128983 -33.60412698 27.36591472 -32.13671875 20.31640625 C-29.4902625 11.54065747 -25.8999907 6.09988789 -18.0390625 1.33203125 C-12.66167509 -1.5388532 -5.79471747 -1.85388584 0 0 Z " fill="#173178" transform="translate(297.13671875,63.68359375)"/>
<path d="M0 0 C2.31 0 4.62 0 7 0 C6.67 3.63 6.34 7.26 6 11 C8.64 11 11.28 11 14 11 C14.04254356 12.99954746 14.04080783 15.00041636 14 17 C13 18 13 18 11.15234375 18.09765625 C9.1015625 18.06510417 7.05078125 18.03255208 5 18 C3.05240613 25.08853984 1.95289953 32.23415872 0.875 39.5 C0.69324219 40.70398438 0.51148438 41.90796875 0.32421875 43.1484375 C-0.12062587 46.0984597 -0.56193577 49.04896467 -1 52 C1.64 52 4.28 52 7 52 C7 54.31 7 56.62 7 59 C5.58376784 59.05447047 4.16691809 59.09300508 2.75 59.125 C1.96109375 59.14820313 1.1721875 59.17140625 0.359375 59.1953125 C-2.24024542 58.98011213 -3.7890415 58.3576061 -6 57 C-8.73529152 53.44412102 -8.26186887 49.27268634 -8 45 C-7.45332603 40.87381226 -6.73443141 36.78394003 -6 32.6875 C-5.62290221 30.54594125 -5.24780718 28.40402859 -4.875 26.26171875 C-4.70742187 25.32287842 -4.53984375 24.38403809 -4.3671875 23.41674805 C-3.92489465 20.91308685 -3.92489465 20.91308685 -4 18 C-5.65 18 -7.3 18 -9 18 C-10 15 -10 15 -9.0625 12.8125 C-8.5365625 11.9153125 -8.5365625 11.9153125 -8 11 C-6.02 11 -4.04 11 -2 11 C-1.34 7.37 -0.68 3.74 0 0 Z " fill="#193687" transform="translate(147,52)"/>
<path d="M0 0 C1.4540625 0.0309375 1.4540625 0.0309375 2.9375 0.0625 C2.6075 3.6925 2.2775 7.3225 1.9375 11.0625 C4.9075 11.0625 7.8775 11.0625 10.9375 11.0625 C10.6075 13.0425 10.2775 15.0225 9.9375 17.0625 C6.85560344 17.97565454 4.14094581 18.10500011 0.9375 18.0625 C0.19895097 22.58188847 -0.53124463 27.10251655 -1.25366211 31.62451172 C-1.50070554 33.16329509 -1.75004544 34.70171158 -2.00170898 36.23974609 C-2.36262805 38.44797282 -2.7153226 40.65737853 -3.06640625 42.8671875 C-3.18093643 43.55682587 -3.29546661 44.24646423 -3.41346741 44.95700073 C-4.09641664 48.6080253 -4.09641664 48.6080253 -3.0625 52.0625 C-0.7525 52.0625 1.5575 52.0625 3.9375 52.0625 C3.98004356 54.06204746 3.97830783 56.06291636 3.9375 58.0625 C2.37799449 59.62200551 0.84872869 59.34446698 -1.3125 59.4375 C-4.80267419 59.36513594 -6.01380419 59.09131997 -9.125 57.25 C-13.83377756 49.50330144 -10.53158344 38.3470454 -9.0625 29.875 C-8.87171875 28.73224609 -8.6809375 27.58949219 -8.484375 26.41210938 C-8.01832628 23.62746826 -7.5442577 20.84445855 -7.0625 18.0625 C-8.7125 18.0625 -10.3625 18.0625 -12.0625 18.0625 C-13.1875 13.3125 -13.1875 13.3125 -12.0625 11.0625 C-9.7525 11.0625 -7.4425 11.0625 -5.0625 11.0625 C-5.00191406 10.35222656 -4.94132812 9.64195313 -4.87890625 8.91015625 C-4.79511719 7.99105469 -4.71132813 7.07195313 -4.625 6.125 C-4.54378906 5.20847656 -4.46257812 4.29195312 -4.37890625 3.34765625 C-3.89440408 -0.1515261 -3.64350125 0.07435717 0 0 Z " fill="#18307B" transform="translate(400.0625,51.9375)"/>
<path d="M0 0 C6.15832528 0.58650717 11.67152369 2.53813865 15.875 7.25 C19.41618039 12.61542484 21.01997533 17.93772647 19.9375 24.375 C18.66952363 27.96349624 16.8910072 31.11611182 14.9375 34.375 C14.28265625 35.48101562 13.6278125 36.58703125 12.953125 37.7265625 C8.5714232 44.76783924 4.26705833 50.115246 -4.0625 52.375 C-9.73566204 53.39277658 -14.27179314 52.47024053 -19.2734375 49.640625 C-24.02012097 46.28270918 -26.78175994 42.08011481 -28.0625 36.375 C-29.34889305 28.33504343 -24.71082169 21.26994159 -20.328125 14.82421875 C-18.94527932 12.97054705 -17.53870703 11.15482408 -16.0625 9.375 C-15.0725 9.705 -14.0825 10.035 -13.0625 10.375 C-13.67712878 14.42374511 -15.83433107 17.11259607 -18.125 20.4375 C-21.47277839 25.60488236 -23.11638606 29.77403008 -22.58203125 35.99609375 C-21.79010958 39.62226138 -20.65518567 41.71583521 -18.0625 44.375 C-13.32301268 47.05772867 -9.47504696 48.13465571 -4.0625 47.375 C2.25166327 44.49360718 5.87933348 40.49371836 9.375 34.625 C9.80748047 33.95984375 10.23996094 33.2946875 10.68554688 32.609375 C14.10090072 27.05073963 15.8843988 21.34705599 14.3359375 14.8515625 C12.10068154 10.80762615 10.43537211 8.07419613 5.9375 6.375 C3.59459485 6.07806931 1.28568452 5.87643938 -1.07421875 5.78125 C-3.0625 5.375 -3.0625 5.375 -5.0625 2.375 C-3.0625 0.375 -3.0625 0.375 0 0 Z " fill="#152D71" transform="translate(188.0625,72.625)"/>
<path d="M0 0 C5.42259088 3.20104527 9.19510653 7.24794834 11.72265625 13.05078125 C13.53058884 21.7940618 10.24950301 27.81632653 5.765625 34.984375 C5.09144531 35.99628906 4.41726562 37.00820312 3.72265625 38.05078125 C3.20316406 38.84613281 2.68367188 39.64148438 2.1484375 40.4609375 C1.67792969 40.98558594 1.20742187 41.51023438 0.72265625 42.05078125 C-0.26734375 42.05078125 -1.25734375 42.05078125 -2.27734375 42.05078125 C-1.7696504 37.27705348 -0.46787728 34.31638072 2.22265625 30.36328125 C5.83385397 25.01308464 7.16701695 21.60510163 6.72265625 15.05078125 C5.30642384 11.80019801 5.30642384 11.80019801 3.72265625 9.05078125 C3.72265625 8.39078125 3.72265625 7.73078125 3.72265625 7.05078125 C-1.71526152 4.84621999 -6.3341279 3.35431064 -12.27734375 4.05078125 C-15.09514909 5.43963373 -15.09514909 5.43963373 -17.27734375 7.05078125 C-17.93734375 7.05078125 -18.59734375 7.05078125 -19.27734375 7.05078125 C-19.52355469 7.74945313 -19.76976562 8.448125 -20.0234375 9.16796875 C-21.46122746 12.47354192 -23.29260606 15.21081632 -25.33984375 18.17578125 C-29.52950732 24.25192987 -31.19657345 28.68435147 -30.27734375 36.05078125 C-28.20856815 40.04056276 -26.06289713 42.66453064 -22.27734375 45.05078125 C-19.69860766 45.62062573 -19.69860766 45.62062573 -17.02734375 45.73828125 C-15.68929687 45.83689453 -15.68929687 45.83689453 -14.32421875 45.9375 C-13.64875 45.97488281 -12.97328125 46.01226562 -12.27734375 46.05078125 C-11.71484375 47.98828125 -11.71484375 47.98828125 -11.27734375 50.05078125 C-12.27734375 51.05078125 -12.27734375 51.05078125 -15.83984375 51.36328125 C-21.54734746 51.26117922 -25.95485176 49.26747643 -30.078125 45.33203125 C-34.71624065 40.10723272 -35.97867656 35.65347177 -35.953125 28.65234375 C-34.11916418 18.87828669 -26.1887291 9.00666552 -19.27734375 2.05078125 C-13.39135958 -1.45817085 -6.4677709 -2.69582904 0 0 Z " fill="#122971" transform="translate(209.27734375,38.94921875)"/>
<path d="M0 0 C1.98 0 3.96 0 6 0 C6.33 1.32 6.66 2.64 7 4 C7.99 3.34 8.98 2.68 10 2 C14.1507982 -0.41068853 17.27319955 -0.33170529 22 0 C21.67 2.31 21.34 4.62 21 7 C20.40832031 7.02578125 19.81664062 7.0515625 19.20703125 7.078125 C15.39513671 7.3517357 12.54446273 7.71593249 9.125 9.5 C3.68143709 15.90419166 3.10127685 25.34043406 1.875 33.375 C1.54113959 35.50813862 1.20529443 37.64096784 0.8671875 39.7734375 C0.72394043 40.70591309 0.58069336 41.63838867 0.43310547 42.59912109 C0 45 0 45 -1 48 C-2.98 48 -4.96 48 -7 48 C-8.22293148 45.55413703 -7.93792562 44.64477732 -7.48681641 41.98095703 C-7.28132675 40.7392424 -7.28132675 40.7392424 -7.07168579 39.47244263 C-6.83897476 38.12870071 -6.83897476 38.12870071 -6.6015625 36.7578125 C-6.44714691 35.8378952 -6.29273132 34.91797791 -6.13363647 33.97018433 C-5.80531248 32.02111815 -5.47389474 30.07257101 -5.13964844 28.12451172 C-4.62847201 25.14523585 -4.12586351 22.16461897 -3.625 19.18359375 C-3.30518755 17.29158207 -2.9848909 15.39965217 -2.6640625 13.5078125 C-2.51297028 12.61603302 -2.36187805 11.72425354 -2.20620728 10.80545044 C-2.06290985 9.97133636 -1.91961243 9.13722229 -1.77197266 8.27783203 C-1.64682281 7.5466214 -1.52167297 6.81541077 -1.39273071 6.06204224 C-1.0033172 4.01741702 -0.5250243 2.0136631 0 0 Z " fill="#15296D" transform="translate(318,63)"/>
<path d="M0 0 C2.95700085 3.49463737 3.72974502 6.91690191 4.0625 11.4375 C3.16384902 16.3800804 0.04808949 18.60159979 -3.9375 21.4375 C-12.27171574 24.98397478 -21.05083161 24.5577707 -29.9375 24.4375 C-29.68129316 26.0440676 -29.40694129 27.6477483 -29.125 29.25 C-28.97417969 30.14332031 -28.82335937 31.03664062 -28.66796875 31.95703125 C-27.87276553 34.65732025 -27.11059845 35.70230552 -24.9375 37.4375 C-21.23056332 39.29096834 -16.98313761 38.89808028 -12.9375 38.4375 C-9.55127224 36.7643025 -9.55127224 36.7643025 -6.9375 34.4375 C-5.761875 33.57125 -5.761875 33.57125 -4.5625 32.6875 C-4.02625 32.275 -3.49 31.8625 -2.9375 31.4375 C-1.6175 32.0975 -0.2975 32.7575 1.0625 33.4375 C-0.05858168 38.20209713 -2.74247266 40.43878738 -6.59765625 43.13671875 C-12.93197447 46.65813439 -19.09274871 46.88697807 -26.02734375 45.23828125 C-28.20343802 44.32601269 -29.39109654 43.19720049 -30.9375 41.4375 C-27.9375 41.4375 -27.9375 41.4375 -24.1875 42.5 C-20.07583461 43.58882991 -17.0770053 43.29989694 -12.9375 42.4375 C-15.79217438 41.83196301 -18.52396232 41.38513729 -21.4375 41.125 C-25.37637451 40.35129251 -27.12257467 39.25242533 -29.9375 36.4375 C-31.03256492 33.15230525 -31.03710608 30.70086585 -31 27.25 C-30.98646484 25.61998047 -30.98646484 25.61998047 -30.97265625 23.95703125 C-30.96105469 23.12558594 -30.94945312 22.29414062 -30.9375 21.4375 C-30.12667969 21.54449219 -29.31585938 21.65148437 -28.48046875 21.76171875 C-18.64352328 22.82671983 -10.9595533 21.38273687 -1.9375 17.4375 C0.03348426 15.7265789 0.03348426 15.7265789 1.0625 13.4375 C0.84052187 10.7390411 0.84052187 10.7390411 0.0625 8.4375 C-0.5975 9.7575 -1.2575 11.0775 -1.9375 12.4375 C-2.205625 11.674375 -2.47375 10.91125 -2.75 10.125 C-3.93498021 7.44320268 -4.65431989 6.21159265 -6.9375 4.4375 C-9.31267325 4.03738501 -9.31267325 4.03738501 -11.875 4.1875 C-13.15697266 4.21070312 -13.15697266 4.21070312 -14.46484375 4.234375 C-16.73559898 4.42091413 -18.75274914 4.80894059 -20.9375 5.4375 C-20.9375 4.7775 -20.9375 4.1175 -20.9375 3.4375 C-17.2007157 0.94631047 -15.19298181 1.2309774 -10.75 1.3125 C-9.47769531 1.33054687 -8.20539063 1.34859375 -6.89453125 1.3671875 C-5.43080078 1.40199219 -5.43080078 1.40199219 -3.9375 1.4375 C-3.9375 1.1075 -3.9375 0.7775 -3.9375 0.4375 C-9.5475 0.1075 -15.1575 -0.2225 -20.9375 -0.5625 C-14.16011786 -5.08075476 -6.87728465 -3.65813013 0 0 Z " fill="#162C6F" transform="translate(253.9375,65.5625)"/>
<path d="M0 0 C2.39935312 0.95974125 3.73566883 1.56847702 5.10546875 3.8046875 C6.62875261 7.54305226 6.6461378 11.04068755 6 15 C3.02111746 20.18902119 0.03244074 21.78827778 -5.62109375 23.45703125 C-10.94673486 24.67257167 -15.9063865 25.11409069 -21.375 25.0625 C-23.24285156 25.04896484 -23.24285156 25.04896484 -25.1484375 25.03515625 C-26.55996094 25.01775391 -26.55996094 25.01775391 -28 25 C-28.33 24.34 -28.66 23.68 -29 23 C-24.90996141 21.85017398 -20.96822949 21.88905744 -16.75 21.9375 C-16.00492187 21.94201172 -15.25984375 21.94652344 -14.4921875 21.95117188 C-12.6614236 21.96290754 -10.83070127 21.9808415 -9 22 C-8.67 21.34 -8.34 20.68 -8 20 C-8.66 20.33 -9.32 20.66 -10 21 C-12.88912732 20.91061582 -15.74393255 20.765952 -18.625 20.5625 C-19.42679687 20.51029297 -20.22859375 20.45808594 -21.0546875 20.40429688 C-23.03679103 20.27451629 -25.01844499 20.13790265 -27 20 C-26.67 18.68 -26.34 17.36 -26 16 C-26 16.99 -26 17.98 -26 19 C-13.11115123 19.20260927 -13.11115123 19.20260927 -2 14 C-1.66661404 10.54187831 -1.66661404 10.54187831 -2 7 C-6.05682262 4.29545159 -9.24210884 4.57923412 -14 5 C-17.41471924 5.88460028 -17.41471924 5.88460028 -20 7 C-20 6.34 -20 5.68 -20 5 C-17.77354731 2.8314456 -16.41677581 2.05081157 -13.30859375 1.671875 C-11.88740234 1.71054688 -11.88740234 1.71054688 -10.4375 1.75 C-9.48746094 1.76546875 -8.53742188 1.7809375 -7.55859375 1.796875 C-4.48901332 2.04056688 -2.57055744 2.49057372 -0.25 4.5625 C1.59387258 8.15805153 1.07150625 11.17667089 0 15 C-1.375 17 -1.375 17 -3 18 C-3.99 18 -4.98 18 -6 18 C-6 18.66 -6 19.32 -6 20 C-4.68 20 -3.36 20 -2 20 C-2 19.34 -2 18.68 -2 18 C-1.175 17.62875 -0.35 17.2575 0.5 16.875 C1.325 16.25625 2.15 15.6375 3 15 C3.71212908 9.48099965 3.25266373 6.60794029 0 2 C0 1.34 0 0.68 0 0 Z " fill="#142B6E" transform="translate(374,65)"/>
<path d="M0 0 C2.475 0.99 2.475 0.99 5 2 C4.42415568 4.38564077 3.77772405 6.66682784 3 9 C2.34 9 1.68 9 1 9 C0.98018066 9.6798999 0.96036133 10.3597998 0.93994141 11.06030273 C0.84378718 14.18637741 0.73447934 17.31186473 0.625 20.4375 C0.57859375 22.04141602 0.57859375 22.04141602 0.53125 23.67773438 C0.29780172 30.03919994 -0.40510577 35.83437231 -2 42 C-3.98 42 -5.96 42 -8 42 C-9.60031344 38.79937313 -8.03173691 36.27728194 -7 33 C-6.34 33 -5.68 33 -5 33 C-5.185625 32.360625 -5.37125 31.72125 -5.5625 31.0625 C-5.706875 30.381875 -5.85125 29.70125 -6 29 C-5.67 28.67 -5.34 28.34 -5 28 C-4.79162581 26.17093765 -4.63250341 24.33611866 -4.5 22.5 C-4.11111111 17.11111111 -4.11111111 17.11111111 -3 16 C-2.71351121 13.28972509 -2.55164579 10.57910392 -2.37890625 7.859375 C-1.99335524 4.94985605 -1.20149422 2.6656633 0 0 Z " fill="#183384" transform="translate(319,69)"/>
<path d="M0 0 C2.31 0 4.62 0 7 0 C6.67 3.63 6.34 7.26 6 11 C8.64 11 11.28 11 14 11 C14.04254356 12.99954746 14.04080783 15.00041636 14 17 C13 18 13 18 11.15234375 18.09765625 C9.1015625 18.06510417 7.05078125 18.03255208 5 18 C3.05240613 25.08853984 1.95289953 32.23415872 0.875 39.5 C0.69324219 40.70398438 0.51148438 41.90796875 0.32421875 43.1484375 C-0.12062587 46.0984597 -0.56193577 49.04896467 -1 52 C-1.66 52 -2.32 52 -3 52 C-4.25699313 46.62921119 -3.68953184 43.63037839 -1.76171875 38.52734375 C-0.61548699 34.72420556 -0.48530315 30.94405217 -0.30859375 26.9921875 C0.05191224 23.49664843 1.02985645 20.37551819 2 17 C2.47147263 14.36474034 2.80681395 11.72013591 3.125 9.0625 C3.21136719 8.37865234 3.29773438 7.69480469 3.38671875 6.99023438 C3.59602285 5.32742954 3.79871722 3.66379487 4 2 C1.80882227 2.82201984 1.80882227 2.82201984 1.1484375 5.06640625 C0.89320313 5.89011719 0.63796875 6.71382812 0.375 7.5625 C-0.01558594 8.80193359 -0.01558594 8.80193359 -0.4140625 10.06640625 C-0.60742188 10.70449219 -0.80078125 11.34257813 -1 12 C-2.09898702 8.70303895 -1.87124444 7.59505097 -1.0625 4.3125 C-0.86785156 3.50425781 -0.67320312 2.69601563 -0.47265625 1.86328125 C-0.31667969 1.24839844 -0.16070312 0.63351563 0 0 Z " fill="#142C72" transform="translate(147,52)"/>
<path d="M0 0 C2.390625 1.52734375 2.390625 1.52734375 4 3 C3.34 3.33 2.68 3.66 2 4 C1.34 3.67 0.68 3.34 0 3 C-2.47362762 2.84938099 -4.90041815 2.76874683 -7.375 2.75 C-8.04789063 2.729375 -8.72078125 2.70875 -9.4140625 2.6875 C-13.65888891 2.65407617 -15.85032319 3.16379813 -19 6 C-19.66 6 -20.32 6 -21 6 C-21 6.99 -21 7.98 -21 9 C-20.34 9 -19.68 9 -19 9 C-19 8.34 -19 7.68 -19 7 C-13.35600642 4.55935413 -8.02248522 4.80710901 -2 5 C-2 5.33 -2 5.66 -2 6 C-2.65226562 6.02578125 -3.30453125 6.0515625 -3.9765625 6.078125 C-9.71408678 6.45047171 -13.5911062 7.00123585 -18 11 C-19.43035512 13.01205943 -20.70596083 15.04719746 -21.921875 17.1953125 C-23 19 -23 19 -25 21 C-25.33 19.35 -25.66 17.7 -26 16 C-28.00808464 18.00808464 -28.27108756 21.32732107 -29 24 C-29.66 24 -30.32 24 -31 24 C-30.50669135 31.73232013 -30.50669135 31.73232013 -28 39 C-28.99 39.495 -28.99 39.495 -30 40 C-33.34734854 32.63583321 -32.90749385 24.86139735 -30.4375 17.25 C-27.45588865 9.99997662 -22.68885411 3.8443474 -15.3828125 0.62109375 C-10.36971903 -0.68559783 -5.10864911 -0.75007943 0 0 Z " fill="#172B6D" transform="translate(122,63)"/>
<path d="M0 0 C2.475 0.99 2.475 0.99 5 2 C3.87891832 6.76459713 1.19502734 9.00128738 -2.66015625 11.69921875 C-8.81188766 15.11912954 -15.19803021 15.65836579 -21.94921875 13.84765625 C-25.26312737 12.47790735 -27.44217184 10.49224283 -30 8 C-29.34 7.34 -28.68 6.68 -28 6 C-27.50371094 6.433125 -27.00742188 6.86625 -26.49609375 7.3125 C-22.97117365 10.20199807 -20.870589 11.89843128 -16.25 12.4375 C-13.73703824 12.09921669 -11.44020971 11.64188125 -9 11 C-9.87011719 10.94392578 -9.87011719 10.94392578 -10.7578125 10.88671875 C-15.81678864 10.46096333 -19.54279158 9.62861009 -24 7 C-23.67 6.34 -23.34 5.68 -23 5 C-22.16082031 5.48339844 -22.16082031 5.48339844 -21.3046875 5.9765625 C-17.31216084 7.74951502 -13.28054509 7.5612721 -9 7 C-5.44669716 5.12644032 -2.68255864 2.98062071 0 0 Z " fill="#192F75" transform="translate(123,97)"/>
<path d="M0 0 C1.2684375 0.01289062 2.536875 0.02578125 3.84375 0.0390625 C7.42623588 0.36822253 10.21646472 0.91457636 13.5 2.375 C15.75415753 6.15616747 16.58769059 8.41040349 16.1875 12.8125 C15.960625 13.658125 15.73375 14.50375 15.5 15.375 C13.52 16.035 11.54 16.695 9.5 17.375 C9.5721875 16.74851562 9.644375 16.12203125 9.71875 15.4765625 C9.85796875 14.25066406 9.85796875 14.25066406 10 13 C10.13921875 11.78183594 10.13921875 11.78183594 10.28125 10.5390625 C10.53352351 8.40587175 10.53352351 8.40587175 10.5 6.375 C8.025 5.88 8.025 5.88 5.5 5.375 C5.5 4.715 5.5 4.055 5.5 3.375 C-3.03651444 4.08083522 -3.03651444 4.08083522 -11.5 5.375 C-11.5 6.035 -11.5 6.695 -11.5 7.375 C-12.16 7.375 -12.82 7.375 -13.5 7.375 C-13.5 6.385 -13.5 5.395 -13.5 4.375 C-9.03715546 0.5595434 -5.78937303 -0.1294372 0 0 Z " fill="#1A388A" transform="translate(114.5,64.625)"/>
<path d="M0 0 C0.66 0.33 1.32 0.66 2 1 C1.125 6.75 1.125 6.75 0 9 C-0.66 9 -1.32 9 -2 9 C-2 9.66 -2 10.32 -2 11 C-2.66 11 -3.32 11 -4 11 C-3.96519531 12.05960938 -3.93039063 13.11921875 -3.89453125 14.2109375 C-3.86639601 15.59894252 -3.83909557 16.98696463 -3.8125 18.375 C-3.77479492 19.42300781 -3.77479492 19.42300781 -3.73632812 20.4921875 C-3.70703125 22.5234375 -3.70703125 22.5234375 -4 26 C-4.99 26.66 -5.98 27.32 -7 28 C-7.84419939 23.58314879 -8.16322706 19.37034903 -8.1875 14.875 C-8.20167969 13.67617187 -8.21585938 12.47734375 -8.23046875 11.2421875 C-8.01000149 8.14069893 -7.74658251 6.52476284 -6 4 C-2.875 1.75 -2.875 1.75 0 0 Z " fill="#17317C" transform="translate(49,72)"/>
<path d="M0 0 C4.95 0 9.9 0 15 0 C18.53434481 5.30151722 19.85320977 8.60092669 19 15 C17.125 17 17.125 17 15 18 C14.34 18 13.68 18 13 18 C13 18.66 13 19.32 13 20 C11.35 20.33 9.7 20.66 8 21 C8.33 20.01 8.66 19.02 9 18 C9.825 17.608125 10.65 17.21625 11.5 16.8125 C14.0949705 15.29841408 14.0949705 15.29841408 14.62109375 13.171875 C15.07768611 10.12792591 15.19996757 7.8012885 14.44921875 4.79296875 C13.0304497 2.64104601 13.0304497 2.64104601 9.7421875 2.390625 C7.82792969 2.32101563 7.82792969 2.32101563 5.875 2.25 C3.95300781 2.16492188 3.95300781 2.16492188 1.9921875 2.078125 C1.00476563 2.05234375 0.01734375 2.0265625 -1 2 C-0.67 1.34 -0.34 0.68 0 0 Z " fill="#1B3789" transform="translate(359,65)"/>
<path d="M0 0 C1.98 0 3.96 0 6 0 C6 1.98 6 3.96 6 6 C3.525 4.515 3.525 4.515 1 3 C1.04125 4.093125 1.0825 5.18625 1.125 6.3125 C1 10 1 10 -1 13 C-0.67 13.66 -0.34 14.32 0 15 C-0.99 15.495 -0.99 15.495 -2 16 C-2.39258939 18.52092173 -2.39258939 18.52092173 -2.5 21.4375 C-2.77854195 26.77854195 -2.77854195 26.77854195 -5 29 C-4.96519531 27.90300781 -4.93039063 26.80601563 -4.89453125 25.67578125 C-4.86638135 24.22136955 -4.83908248 22.7669412 -4.8125 21.3125 C-4.78736328 20.59126953 -4.76222656 19.87003906 -4.73632812 19.12695312 C-4.67386485 14.56713379 -4.97397368 11.50381995 -8 8 C-10.23837799 6.98325288 -10.23837799 6.98325288 -12.6875 6.6875 C-13.89986328 6.47673828 -13.89986328 6.47673828 -15.13671875 6.26171875 C-15.75160156 6.17535156 -16.36648437 6.08898437 -17 6 C-17 5.67 -17 5.34 -17 5 C-12.45194365 4.82164485 -9.1205746 5.00214565 -5 7 C-5.33 5.68 -5.66 4.36 -6 3 C-4.68 3.99 -3.36 4.98 -2 6 C-1.34 4.02 -0.68 2.04 0 0 Z " fill="#132A6D" transform="translate(78,63)"/>
<path d="M0 0 C5.6112031 0.5344003 10.6961284 1.94641406 14.62109375 6.19921875 C16 8.125 16 8.125 17.9375 11.375 C16.9475 11.87 16.9475 11.87 15.9375 12.375 C15.2775 13.035 14.6175 13.695 13.9375 14.375 C13.4425 13.446875 12.9475 12.51875 12.4375 11.5625 C9.82290502 7.62665062 6.43838042 6.39508025 1.9375 5.375 C0.98875 5.375 0.04 5.375 -0.9375 5.375 C-1.63875 5.375 -2.34 5.375 -3.0625 5.375 C-3.7225 4.385 -4.3825 3.395 -5.0625 2.375 C-3.0625 0.375 -3.0625 0.375 0 0 Z " fill="#0F2669" transform="translate(188.0625,72.625)"/>
<path d="M0 0 C0.66 0 1.32 0 2 0 C1.42194978 9.1130413 0.13426574 18.00931669 -1.4375 27 C-1.76331055 28.94326172 -1.76331055 28.94326172 -2.09570312 30.92578125 C-2.31033203 32.16714844 -2.52496094 33.40851563 -2.74609375 34.6875 C-2.93872803 35.80511719 -3.1313623 36.92273438 -3.32983398 38.07421875 C-3.92978542 40.69346028 -4.67002934 42.68320873 -6 45 C-6.19644384 43.10507254 -6.38177288 41.20899097 -6.5625 39.3125 C-6.66691406 38.25675781 -6.77132812 37.20101562 -6.87890625 36.11328125 C-6.99388777 33.15714352 -6.85085755 30.82770023 -6 28 C-5.34 27.67 -4.68 27.34 -4 27 C-4.33 26.01 -4.66 25.02 -5 24 C-4.4765625 21.1875 -4.4765625 21.1875 -3.625 18 C-3.34914063 16.948125 -3.07328125 15.89625 -2.7890625 14.8125 C-2.24146295 12.86066003 -1.64105729 10.92317188 -1 9 C-0.78196693 7.44146733 -0.59633644 5.87817349 -0.4375 4.3125 C-0.35371094 3.50425781 -0.26992187 2.69601563 -0.18359375 1.86328125 C-0.12300781 1.24839844 -0.06242187 0.63351563 0 0 Z " fill="#142C71" transform="translate(81,70)"/>
<path d="M0 0 C1.17046875 0.10183594 2.3409375 0.20367187 3.546875 0.30859375 C4.43890625 0.39238281 5.3309375 0.47617188 6.25 0.5625 C6.25 1.5525 6.25 2.5425 6.25 3.5625 C4.78626953 3.54509766 4.78626953 3.54509766 3.29296875 3.52734375 C2.02066406 3.51832031 0.74835938 3.50929688 -0.5625 3.5 C-1.82707031 3.48839844 -3.09164062 3.47679688 -4.39453125 3.46484375 C-7.74605237 3.40090884 -7.74605237 3.40090884 -10.75 4.5625 C-11.10412344 5.89046291 -11.43521554 7.22466607 -11.75 8.5625 C-13 10.3125 -13 10.3125 -14.75 11.5625 C-17.4375 11.75 -17.4375 11.75 -19.75 11.5625 C-19.42 10.5725 -19.09 9.5825 -18.75 8.5625 C-18.09 8.2325 -17.43 7.9025 -16.75 7.5625 C-16.46125 6.94375 -16.1725 6.325 -15.875 5.6875 C-14.28010958 2.67492922 -12.24826562 1.09612885 -9.0390625 -0.046875 C-5.94407369 -0.57503009 -3.12257314 -0.28103158 0 0 Z " fill="#173482" transform="translate(243.75,64.4375)"/>
<path d="M0 0 C0.33 0.66 0.66 1.32 1 2 C-3.33279483 3.58516884 -7.43843766 4.37390321 -12 5 C-12.33 5.33 -12.66 5.66 -13 6 C-15.67058851 6.14115161 -18.32432238 6.04247107 -21 6 C-21.33 5.34 -21.66 4.68 -22 4 C-21.67 3.67 -21.34 3.34 -21 3 C-21.99 2.34 -22.98 1.68 -24 1 C-22.46279297 0.90912109 -22.46279297 0.90912109 -20.89453125 0.81640625 C-19.53384305 0.73194974 -18.17316657 0.64730433 -16.8125 0.5625 C-16.13896484 0.52318359 -15.46542969 0.48386719 -14.77148438 0.44335938 C-1.08130489 -0.42479835 -1.08130489 -0.42479835 0 0 Z " fill="#152D77" transform="translate(122,83)"/>
<path d="M0 0 C0.33 0 0.66 0 1 0 C0.85982174 2.97953359 0.71313658 5.95849304 0.5625 8.9375 C0.52318359 9.78763672 0.48386719 10.63777344 0.44335938 11.51367188 C0.40146484 12.32255859 0.35957031 13.13144531 0.31640625 13.96484375 C0.27974854 14.7137085 0.24309082 15.46257324 0.20532227 16.23413086 C0 18 0 18 -1 19 C-1.36760731 21.32817964 -1.70241581 23.6618385 -2 26 C-1.34 26.33 -0.68 26.66 0 27 C-0.165 27.78375 -0.33 28.5675 -0.5 29.375 C-1.0623707 31.88208039 -1.0623707 31.88208039 -1 34 C0.32 34.33 1.64 34.66 3 35 C2.67 35.66 2.34 36.32 2 37 C-0.47407292 36.67012361 -1.6637767 36.42027913 -3.25 34.4375 C-5.51834684 27.06537277 -3.30679677 18.88163583 -2 11.5 C-1.80921875 10.39140625 -1.6184375 9.2828125 -1.421875 8.140625 C-0.95383586 5.42599799 -0.47974117 2.71257905 0 0 Z " fill="#192E6B" transform="translate(143,73)"/>
<path d="M0 0 C0.66 0.33 1.32 0.66 2 1 C1.649375 2.010625 1.29875 3.02125 0.9375 4.0625 C-0.19610534 7.92777933 0.28738053 11.04100295 1 15 C0.67 15.33 0.34 15.66 0 16 C0.32484375 17.03060547 0.32484375 17.03060547 0.65625 18.08203125 C0.9346875 18.98308594 1.213125 19.88414063 1.5 20.8125 C1.7784375 21.70582031 2.056875 22.59914063 2.34375 23.51953125 C3 26 3 26 3 29 C-1.08970082 24.50132909 -3.04574007 20.49149165 -2.96484375 14.31640625 C-2.58909266 9.2813417 -1.91140513 4.71479932 0 0 Z " fill="#162B6C" transform="translate(267,78)"/>
<path d="M0 0 C1.32 0 2.64 0 4 0 C7 4.07142857 7 4.07142857 7 7 C10.3 7.33 13.6 7.66 17 8 C17 8.66 17 9.32 17 10 C11.96103417 10.3585035 8.12237862 10.54114683 3.5 8.3125 C0.92931829 5.93461942 -0.0717492 4.34170288 -1 1 C-0.67 0.67 -0.34 0.34 0 0 Z " fill="#1B388D" transform="translate(40,117)"/>
<path d="M0 0 C0 0.99 0 1.98 0 3 C-5.38022819 7.90198569 -10.74747569 9.63737378 -18 10 C-20.8758652 9.61564695 -23.2350743 8.93903137 -26 8 C-26 7.67 -26 7.34 -26 7 C-24.96101563 6.99742188 -23.92203125 6.99484375 -22.8515625 6.9921875 C-13.75989457 6.79914225 -7.39813823 5.81536347 0 0 Z " fill="#152969" transform="translate(375,102)"/>
<path d="M0 0 C2.475 0.99 2.475 0.99 5 2 C4.42415568 4.38564077 3.77772405 6.66682784 3 9 C2.34 9 1.68 9 1 9 C0.67 11.31 0.34 13.62 0 16 C-0.66 16 -1.32 16 -2 16 C-2.05449838 14.27119018 -2.09301688 12.54187288 -2.125 10.8125 C-2.14820313 9.84957031 -2.17140625 8.88664062 -2.1953125 7.89453125 C-1.9913544 4.87187222 -1.26874632 2.73230015 0 0 Z " fill="#1B3889" transform="translate(319,69)"/>
<path d="M0 0 C1.61949011 2.57213134 2.04408751 3.67669159 1.625 6.75 C1.41875 7.4925 1.2125 8.235 1 9 C0.34 9 -0.32 9 -1 9 C-1.144375 9.61875 -1.28875 10.2375 -1.4375 10.875 C-2 13 -2 13 -3 15 C-3.99 15 -4.98 15 -6 15 C-6 15.66 -6 16.32 -6 17 C-6.66 16.67 -7.32 16.34 -8 16 C-7.690625 15.401875 -7.38125 14.80375 -7.0625 14.1875 C-5.89790296 11.91043228 -5.89790296 11.91043228 -5 9 C-4.34 8.34 -3.68 7.68 -3 7 C-1.96157435 4.68351201 -0.9578025 2.35096976 0 0 Z " fill="#1B3789" transform="translate(74,106)"/>
<path d="M0 0 C0.89138672 0.35964844 0.89138672 0.35964844 1.80078125 0.7265625 C8.85096619 3.24840159 13.83337242 2.8054177 21 1 C22.66514378 0.65914069 24.33140339 0.32353399 26 0 C21.6123733 4.3876267 17.03734822 5.57962168 11 6 C6.00407754 5.562569 2.38625851 4.85332865 -1 1 C-0.67 0.67 -0.34 0.34 0 0 Z " fill="#15296E" transform="translate(224,106)"/>
<path d="M0 0 C2.475 0.495 2.475 0.495 5 1 C1.31123099 4.52838774 -3.03865596 5.54453235 -8 6 C-12.55471734 5.55871251 -15.90065752 4.45110835 -19 1 C-18.20335937 1.0721875 -17.40671875 1.144375 -16.5859375 1.21875 C-15.52632813 1.3115625 -14.46671875 1.404375 -13.375 1.5 C-12.33085937 1.5928125 -11.28671875 1.685625 -10.2109375 1.78125 C-7.12853212 1.99124355 -4.08834771 2.03709727 -1 2 C-0.67 1.34 -0.34 0.68 0 0 Z " fill="#172C6B" transform="translate(290,106)"/>
<path d="M0 0 C-0.3364345 2.86592355 -0.78543696 3.82078643 -3.0390625 5.703125 C-8.29993451 8.85011188 -11.83299098 10.80439248 -18 10 C-15.81402448 7.81402448 -13.76923747 7.07579931 -10.9453125 5.9296875 C-8.82990123 4.91870782 -7.06999518 3.70664915 -5.1875 2.3125 C-2 0 -2 0 0 0 Z " fill="#1D3B90" transform="translate(376,99)"/>
<path d="M0 0 C2.31 0 4.62 0 7 0 C6.34 4.29 5.68 8.58 5 13 C4.34 12.67 3.68 12.34 3 12 C3.33 8.7 3.66 5.4 4 2 C1.80882227 2.82201984 1.80882227 2.82201984 1.1484375 5.06640625 C0.89320313 5.89011719 0.63796875 6.71382812 0.375 7.5625 C0.11460937 8.38878906 -0.14578125 9.21507812 -0.4140625 10.06640625 C-0.60742188 10.70449219 -0.80078125 11.34257813 -1 12 C-2.09898702 8.70303895 -1.87124444 7.59505097 -1.0625 4.3125 C-0.86785156 3.50425781 -0.67320312 2.69601563 -0.47265625 1.86328125 C-0.31667969 1.24839844 -0.16070312 0.63351563 0 0 Z " fill="#172C6D" transform="translate(147,52)"/>
<path d="M0 0 C4.875 1.875 4.875 1.875 6 3 C8.18639453 3.07258946 10.37500389 3.08373783 12.5625 3.0625 C13.76003906 3.05347656 14.95757812 3.04445313 16.19140625 3.03515625 C17.58166016 3.01775391 17.58166016 3.01775391 19 3 C18.67 3.99 18.34 4.98 18 6 C5.33029613 6.3690205 5.33029613 6.3690205 0 4 C0 2.68 0 1.36 0 0 Z " fill="#1D3A8B" transform="translate(271,103)"/>
<path d="M0 0 C1.32 0 2.64 0 4 0 C4 1.65 4 3.3 4 5 C3.34 5 2.68 5 2 5 C2.165 6.11375 2.33 7.2275 2.5 8.375 C3.19512195 13.41463415 3.19512195 13.41463415 2 17 C0.93347808 14.69631264 -0.06421005 12.35981813 -1 10 C-0.67 9.34 -0.34 8.68 0 8 C-0.32759934 5.66585471 -0.66073053 3.33247761 -1 1 C-0.67 0.67 -0.34 0.34 0 0 Z " fill="#193788" transform="translate(267,84)"/>
<path d="M0 0 C0.99 0.66 1.98 1.32 3 2 C2.67 2.33 2.34 2.66 2 3 C1.79649381 6.07068226 1.68052389 9.13932606 1.57421875 12.21484375 C1 15 1 15 -1.04296875 16.37890625 C-1.68878906 16.58386719 -2.33460938 16.78882812 -3 17 C-2.88556397 14.9160597 -2.75804453 12.83283507 -2.625 10.75 C-2.55539062 9.58984375 -2.48578125 8.4296875 -2.4140625 7.234375 C-2.03751692 4.29305666 -1.5225877 2.50050989 0 0 Z " fill="#1B3889" transform="translate(396,73)"/>
<path d="M0 0 C0.04254356 1.99954746 0.04080783 4.00041636 0 6 C-1.56977574 7.56977574 -3.14196387 7.20737081 -5.3125 7.25 C-8.48892544 7.22976799 -9.76479446 7.13768129 -12.5625 5.5 C-13.036875 5.005 -13.51125 4.51 -14 4 C-13.67 3.34 -13.34 2.68 -13 2 C-12.278125 2.515625 -11.55625 3.03125 -10.8125 3.5625 C-7.5804634 5.21442982 -6.38391693 5.06351675 -3 4 C-4.32 3.34 -5.64 2.68 -7 2 C-7 1.67 -7 1.34 -7 1 C-2.25 0 -2.25 0 0 0 Z " fill="#182A68" transform="translate(404,104)"/>
<path d="M0 0 C0.66 0.66 1.32 1.32 2 2 C0.96359375 2.04898438 -0.0728125 2.09796875 -1.140625 2.1484375 C-2.51044208 2.22349597 -3.88023248 2.29904247 -5.25 2.375 C-5.93191406 2.4059375 -6.61382812 2.436875 -7.31640625 2.46875 C-11.09068528 2.68861091 -13.67278984 3.30695058 -17 5 C-19.25 4.625 -19.25 4.625 -21 4 C-14.17191115 -0.28429105 -8.008896 -0.9755879 0 0 Z " fill="#162C6A" transform="translate(372,63)"/>
<path d="M0 0 C2.10700726 0.20138301 4.2107511 0.43712773 6.3125 0.6875 C7.48425781 0.81511719 8.65601562 0.94273438 9.86328125 1.07421875 C13 2 13 2 14.98046875 4.39453125 C16 7 16 7 15 10 C14.67 8.68 14.34 7.36 14 6 C13.32453125 5.86722656 12.6490625 5.73445313 11.953125 5.59765625 C11.06109375 5.42105469 10.1690625 5.24445313 9.25 5.0625 C8.36828125 4.88847656 7.4865625 4.71445313 6.578125 4.53515625 C4.36764947 4.07631512 2.18487932 3.56663926 0 3 C0 2.01 0 1.02 0 0 Z " fill="#193389" transform="translate(59,64)"/>
<path d="M0 0 C2.0839403 0.11443603 4.16716493 0.24195547 6.25 0.375 C7.41015625 0.44460937 8.5703125 0.51421875 9.765625 0.5859375 C12.70694334 0.96248308 14.49949011 1.4774123 17 3 C17 3.33 17 3.66 17 4 C10.32477353 5.11477625 6.00914805 5.26584133 0 2 C0 1.34 0 0.68 0 0 Z " fill="#1E398E" transform="translate(225,105)"/>
<path d="M0 0 C1.72880982 -0.05449838 3.45812712 -0.09301688 5.1875 -0.125 C6.15042969 -0.14820312 7.11335938 -0.17140625 8.10546875 -0.1953125 C11.12812778 0.0086456 13.26769985 0.73125368 16 2 C16 2.33 16 2.66 16 3 C5.92395139 4.42689142 5.92395139 4.42689142 2 3 C1.34 2.01 0.68 1.02 0 0 Z " fill="#1E3A87" transform="translate(99,106)"/>
<path d="M0 0 C0.66 0 1.32 0 2 0 C2.03738281 0.81984375 2.07476562 1.6396875 2.11328125 2.484375 C2.17902344 3.56203125 2.24476563 4.6396875 2.3125 5.75 C2.37050781 6.81734375 2.42851562 7.8846875 2.48828125 8.984375 C3.03090154 12.1821068 3.85071145 13.62598691 6 16 C4.68 16.33 3.36 16.66 2 17 C1.67 16.01 1.34 15.02 1 14 C0.34 13.67 -0.32 13.34 -1 13 C-0.67 8.71 -0.34 4.42 0 0 Z " fill="#20388A" transform="translate(342,86)"/>
<path d="M0 0 C0.66 0.99 1.32 1.98 2 3 C1.34 4.32 0.68 5.64 0 7 C-1.65 6.67 -3.3 6.34 -5 6 C-4.67 6.33 -4.34 6.66 -4 7 C-3.31731862 8.32520503 -2.6492959 9.65812182 -2 11 C-3.65 11 -5.3 11 -7 11 C-8.125 6.25 -8.125 6.25 -7 4 C-4.69 4 -2.38 4 0 4 C0 2.68 0 1.36 0 0 Z M-1 7 C-0.34 7.66 0.32 8.32 1 9 C0.01 8.67 -0.98 8.34 -2 8 C-1.67 7.67 -1.34 7.34 -1 7 Z " fill="#122569" transform="translate(395,59)"/>
<path d="M0 0 C0 0.99 0 1.98 0 3 C-4.29 3.99 -8.58 4.98 -13 6 C-12 2 -12 2 -9.3125 0.1875 C-5.64248468 -1.12816587 -3.72188336 -0.97477898 0 0 Z " fill="#153286" transform="translate(339,65)"/>
<path d="M0 0 C0 0.66 0 1.32 0 2 C-0.99 2.33 -1.98 2.66 -3 3 C-2.31267043 5.74931827 -1.64439778 7.53418821 0.69140625 9.22265625 C2.43116325 10.20324656 4.2137611 11.10688055 6 12 C4.23046875 12.6640625 4.23046875 12.6640625 2 13 C-1.78645171 10.91470775 -4.59644597 8.23756569 -5.9375 4.125 C-5.958125 3.42375 -5.97875 2.7225 -6 2 C-2.25 0 -2.25 0 0 0 Z " fill="#172766" transform="translate(43,115)"/>
<path d="M0 0 C0.33 0 0.66 0 1 0 C0.85879286 1.93784265 0.71187127 3.87526955 0.5625 5.8125 C0.48128906 6.89144531 0.40007812 7.97039062 0.31640625 9.08203125 C0 12 0 12 -1 15 C-2.98 15 -4.96 15 -7 15 C-8.43088528 12.13822943 -7.59991697 10.06624227 -7 7 C-6.67 7 -6.34 7 -6 7 C-6 8.98 -6 10.96 -6 13 C-4.68 12.67 -3.36 12.34 -2 12 C-1.34 8.04 -0.68 4.08 0 0 Z " fill="#1B2E67" transform="translate(318,96)"/>
<path d="M0 0 C1.65 0 3.3 0 5 0 C4 3 4 3 3 4 C3.99 4 4.98 4 6 4 C6.33 5.65 6.66 7.3 7 9 C6.2575 8.690625 5.515 8.38125 4.75 8.0625 C2.49307824 7.1905075 0.3549847 6.52332993 -2 6 C-1.34 4.02 -0.68 2.04 0 0 Z " fill="#12286C" transform="translate(139,63)"/>
<path d="M0 0 C0.66 0.66 1.32 1.32 2 2 C1.01 3.485 1.01 3.485 0 5 C-0.54494178 7.07481537 -0.94226841 9.15027718 -1.33984375 11.2578125 C-1.55769531 11.83273438 -1.77554688 12.40765625 -2 13 C-2.99 13.33 -3.98 13.66 -5 14 C-5 13.01 -5 12.02 -5 11 C-5.99 11 -6.98 11 -8 11 C-7.38511719 10.31164062 -7.38511719 10.31164062 -6.7578125 9.609375 C-6.21898438 8.99578125 -5.68015625 8.3821875 -5.125 7.75 C-4.59132813 7.14671875 -4.05765625 6.5434375 -3.5078125 5.921875 C-2.0202513 4.02581254 -0.99677564 2.18709995 0 0 Z " fill="#152D6E" transform="translate(72,92)"/>
<path d="M0 0 C2.3046875 1.01953125 2.3046875 1.01953125 4 2 C0.1808876 3.27303747 -2.60101993 2.63303328 -6.52734375 2.05859375 C-9.32256679 1.99235624 -10.56294614 2.74331461 -13 4 C-13.99 3.67 -14.98 3.34 -16 3 C-10.78826988 -0.29161902 -6.00835878 -0.76343833 0 0 Z " fill="#132967" transform="translate(68,63)"/>
<path d="M0 0 C0.9796875 0.00515625 1.959375 0.0103125 2.96875 0.015625 C3.9484375 0.01046875 4.928125 0.0053125 5.9375 0 C8.46875 0.265625 8.46875 0.265625 10.46875 2.265625 C9.47875 3.255625 8.48875 4.245625 7.46875 5.265625 C6.97375 4.95625 6.47875 4.646875 5.96875 4.328125 C2.48888219 2.84918118 -0.77153509 2.64159649 -4.53125 2.265625 C-2.53125 0.265625 -2.53125 0.265625 0 0 Z " fill="#1A3788" transform="translate(288.53125,64.734375)"/>
<path d="M0 0 C0.33 0 0.66 0 1 0 C1 1.98 1 3.96 1 6 C1.99 6 2.98 6 4 6 C4.33 5.01 4.66 4.02 5 3 C5.66 6.3 6.32 9.6 7 13 C6.34 12.67 5.68 12.34 5 12 C5 11.34 5 10.68 5 10 C4.34 10 3.68 10 3 10 C2.67 10.99 2.34 11.98 2 13 C0.24252386 8.49646738 -0.19294408 4.82360189 0 0 Z " fill="#152867" transform="translate(160,102)"/>
<path d="M0 0 C2.64 0 5.28 0 8 0 C8 2.31 8 4.62 8 7 C5.03 7 2.06 7 -1 7 C-1 6.67 -1 6.34 -1 6 C2.465 5.505 2.465 5.505 6 5 C6 4.34 6 3.68 6 3 C4.68 3.33 3.36 3.66 2 4 C1.34 2.68 0.68 1.36 0 0 Z " fill="#162B6A" transform="translate(146,104)"/>
<path d="M0 0 C0.66 0.33 1.32 0.66 2 1 C1.979375 2.2375 1.95875 3.475 1.9375 4.75 C1.93233319 7.6640825 2.06984442 10.20953327 3 13 C2.01 13.66 1.02 14.32 0 15 C-1.33257403 4.44191344 -1.33257403 4.44191344 0 0 Z " fill="#1C3A8C" transform="translate(42,85)"/>
<path d="M0 0 C0.928125 0.165 1.85625 0.33 2.8125 0.5 C5.95621353 1.07748388 5.95621353 1.07748388 9 1 C9.33 2.65 9.66 4.3 10 6 C9.01 6.33 8.02 6.66 7 7 C7 6.34 7 5.68 7 5 C5.8553125 4.814375 5.8553125 4.814375 4.6875 4.625 C2 4 2 4 -1 2 C-0.67 1.34 -0.34 0.68 0 0 Z M5 2 C4.67 2.66 4.34 3.32 4 4 C4.99 3.67 5.98 3.34 7 3 C6.34 2.67 5.68 2.34 5 2 Z " fill="#183588" transform="translate(389,64)"/>
<path d="M0 0 C2 0 2 0 4.125 1.8125 C6 4 6 4 6 7 C6.66 7 7.32 7 8 7 C7.67 7.66 7.34 8.32 7 9 C3.34683329 7.75023244 2.21934164 7.32901247 0 4 C0 2.68 0 1.36 0 0 Z " fill="#183179" transform="translate(163,112)"/>
<path d="M0 0 C1.9375 0.375 1.9375 0.375 4 1 C4.33 1.66 4.66 2.32 5 3 C-0.27913453 5.08386889 -5.39538469 5.57910004 -11 6 C-11 5.34 -11 4.68 -11 4 C-10.28972656 3.87882812 -9.57945313 3.75765625 -8.84765625 3.6328125 C-7.92855469 3.46523437 -7.00945312 3.29765625 -6.0625 3.125 C-5.14597656 2.96257812 -4.22945313 2.80015625 -3.28515625 2.6328125 C-2.53105469 2.42398438 -1.77695313 2.21515625 -1 2 C-0.67 1.34 -0.34 0.68 0 0 Z " fill="#1A3588" transform="translate(118,82)"/>
<path d="M0 0 C0.66 0 1.32 0 2 0 C2.22281874 1.91503674 2.42771076 3.83216506 2.625 5.75 C2.74101562 6.81734375 2.85703125 7.8846875 2.9765625 8.984375 C3.00029475 12.03792399 2.61420985 13.46162421 1 16 C0.22678118 13.01758453 -0.41196203 10.02419525 -1 7 C-0.34 7 0.32 7 1 7 C0.67 4.69 0.34 2.38 0 0 Z " fill="#172F7B" transform="translate(269,89)"/>
<path d="M0 0 C1.76630091 4.71013576 0.86024137 9.97590266 -1.0625 14.5 C-1.371875 14.995 -1.68125 15.49 -2 16 C-4 13 -4 13 -3.57421875 10.1171875 C-3.28160156 9.04726562 -2.98898437 7.97734375 -2.6875 6.875 C-2.26017578 5.26238281 -2.26017578 5.26238281 -1.82421875 3.6171875 C-1 1 -1 1 0 0 Z " fill="#1D3B8C" transform="translate(317,87)"/>
<path d="M0 0 C1.32257813 0.19142578 1.32257813 0.19142578 2.671875 0.38671875 C4.00992188 0.56654297 4.00992188 0.56654297 5.375 0.75 C6.05046875 0.85699219 6.7259375 0.96398437 7.421875 1.07421875 C7.421875 2.06421875 7.421875 3.05421875 7.421875 4.07421875 C0.491875 3.57921875 0.491875 3.57921875 -6.578125 3.07421875 C-2.578125 0.07421875 -2.578125 0.07421875 0 0 Z " fill="#1D378E" transform="translate(242.578125,63.92578125)"/>
<path d="M0 0 C1.32 0.66 2.64 1.32 4 2 C3.34 2.66 2.68 3.32 2 4 C2 4.99 2 5.98 2 7 C0 8.6875 0 8.6875 -2 10 C-3.39195915 5.82412255 -1.82323219 3.86525224 0 0 Z " fill="#1C3589" transform="translate(345,75)"/>
<path d="M0 0 C1.670625 0.061875 1.670625 0.061875 3.375 0.125 C2.385 0.785 1.395 1.445 0.375 2.125 C2.85 3.115 2.85 3.115 5.375 4.125 C2.30359432 5.03504613 -0.42399154 5.46194826 -3.625 5.125 C-4.285 4.135 -4.945 3.145 -5.625 2.125 C-3.625 0.125 -3.625 0.125 0 0 Z " fill="#112464" transform="translate(188.625,72.875)"/>
<path d="M0 0 C1.98 0.66 3.96 1.32 6 2 C5.67 2.99 5.34 3.98 5 5 C4.67 4.01 4.34 3.02 4 2 C3.39671875 2.44472656 2.7934375 2.88945313 2.171875 3.34765625 C1.37265625 3.91355469 0.5734375 4.47945313 -0.25 5.0625 C-1.43335938 5.91521484 -1.43335938 5.91521484 -2.640625 6.78515625 C-5 8 -5 8 -7.296875 7.68359375 C-7.85890625 7.45800781 -8.4209375 7.23242188 -9 7 C-7.2421875 6.05598958 -5.484375 5.11197917 -3.7265625 4.16796875 C-1.69497635 2.95236507 -1.69497635 2.95236507 0 0 Z " fill="#182C69" transform="translate(372,97)"/>
<path d="M0 0 C-2.62451617 2.62451617 -4.4877828 2.5832868 -8.125 3.125 C-9.22070312 3.29257813 -10.31640625 3.46015625 -11.4453125 3.6328125 C-12.70988281 3.81457031 -12.70988281 3.81457031 -14 4 C-14.33 3.01 -14.66 2.02 -15 1 C-13.44033408 0.63355422 -11.87707349 0.28239138 -10.3125 -0.0625 C-9.44238281 -0.25972656 -8.57226562 -0.45695312 -7.67578125 -0.66015625 C-4.83998724 -1.02032279 -2.75210018 -0.70909969 0 0 Z " fill="#183689" transform="translate(247,85)"/>
<path d="M0 0 C0.33 0.66 0.66 1.32 1 2 C0.34 2 -0.32 2 -1 2 C-1 2.99 -1 3.98 -1 5 C-3.31 5.66 -5.62 6.32 -8 7 C-8.33 6.01 -8.66 5.02 -9 4 C-6.03 2.68 -3.06 1.36 0 0 Z " fill="#132C79" transform="translate(193,116)"/>
<path d="M0 0 C-0.33 0.99 -0.66 1.98 -1 3 C-5.95 3 -10.9 3 -16 3 C-15.67 2.34 -15.34 1.68 -15 1 C-12.12890625 0.5859375 -12.12890625 0.5859375 -8.5625 0.375 C-7.38816406 0.30023438 -6.21382813 0.22546875 -5.00390625 0.1484375 C-3.33723739 0.06607935 -1.66870247 0 0 0 Z " fill="#1A368B" transform="translate(366,85)"/>
<path d="M0 0 C3.91593446 0.78318689 7.36406635 2.39179858 11 4 C11 4.66 11 5.32 11 6 C8.03 5.505 8.03 5.505 5 5 C5 4.34 5 3.68 5 3 C2.03 2.505 2.03 2.505 -1 2 C-0.67 1.34 -0.34 0.68 0 0 Z " fill="#0E2A7B" transform="translate(189,74)"/>
<path d="M0 0 C0.99 0.99 1.98 1.98 3 3 C2.01 5.97 1.02 8.94 0 12 C-0.66 12 -1.32 12 -2 12 C-1.34 8.04 -0.68 4.08 0 0 Z " fill="#192E77" transform="translate(71,103)"/>
<path d="M0 0 C1.58357459 0.31127516 3.16684993 0.62407289 4.75 0.9375 C5.63171875 1.11152344 6.5134375 1.28554687 7.421875 1.46484375 C9.63235053 1.92368488 11.81512068 2.43336074 14 3 C13.67 4.32 13.34 5.64 13 7 C12.34 6.67 11.68 6.34 11 6 C11.33 5.34 11.66 4.68 12 4 C8.37 3.67 4.74 3.34 1 3 C0.67 2.01 0.34 1.02 0 0 Z " fill="#162A68" transform="translate(184,83)"/>
<path d="M0 0 C3.0011414 2.42027532 3.9392619 3.75270914 4.875 7.5625 C5 11 5 11 3 14 C0.88838269 4.58997722 0.88838269 4.58997722 0 0 Z " fill="#152E6D" transform="translate(126,66)"/>
<path d="M0 0 C0.598125 0.309375 1.19625 0.61875 1.8125 0.9375 C4.08956772 2.10209704 4.08956772 2.10209704 7 3 C8.35439668 5.70879335 8.06501451 8.00933268 8 11 C6 10 6 10 5.125 7.6875 C3.87801782 4.70859812 2.33701255 3.18121171 0 1 C0 0.67 0 0.34 0 0 Z " fill="#132E7C" transform="translate(211,43)"/>
<path d="M0 0 C4.95 0.99 4.95 0.99 10 2 C9.67 2.66 9.34 3.32 9 4 C6.36 4 3.72 4 1 4 C0.67 2.68 0.34 1.36 0 0 Z " fill="#1B3A8B" transform="translate(348,105)"/>
<path d="M0 0 C1.74965358 -0.05429959 3.49979787 -0.09292823 5.25 -0.125 C6.22453125 -0.14820313 7.1990625 -0.17140625 8.203125 -0.1953125 C11.0196498 0.00137219 12.60949036 0.55431084 15 2 C11.82587823 3.58706088 8.46361333 3.28477127 5 3 C2 2 2 2 0 1 C0 0.67 0 0.34 0 0 Z " fill="#182A65" transform="translate(284,63)"/>
<path d="M0 0 C1.32 0 2.64 0 4 0 C4.66 1.32 5.32 2.64 6 4 C5.01 4 4.02 4 3 4 C3 4.66 3 5.32 3 6 C2.34 6 1.68 6 1 6 C0.34 4.35 -0.32 2.7 -1 1 C-0.67 0.67 -0.34 0.34 0 0 Z " fill="#16317D" transform="translate(40,117)"/>
<path d="M0 0 C-0.33 1.32 -0.66 2.64 -1 4 C-2.65 4 -4.3 4 -6 4 C-6.33 3.34 -6.66 2.68 -7 2 C-5.26578631 -1.46842738 -3.40984787 -1.13661596 0 0 Z " fill="#1E3884" transform="translate(297,103)"/>
<path d="M0 0 C0.99 0 1.98 0 3 0 C2.01 2.97 1.02 5.94 0 9 C-0.99 9 -1.98 9 -3 9 C-2.01 6.03 -1.02 3.06 0 0 Z " fill="#172F7B" transform="translate(214,66)"/>
<path d="M0 0 C0.33 0 0.66 0 1 0 C1 3.96 1 7.92 1 12 C0.34 12 -0.32 12 -1 12 C-1.92470553 7.28400182 -2.22923777 4.32734391 0 0 Z " fill="#132D76" transform="translate(145,92)"/>
<path d="M0 0 C2.475 0.99 2.475 0.99 5 2 C3.75023244 5.65316671 3.32901247 6.78065836 0 9 C0 8.01 0 7.02 0 6 C0.66 5.67 1.32 5.34 2 5 C0.15811388 2.94729537 0.15811388 2.94729537 -2 2 C-1.34 1.34 -0.68 0.68 0 0 Z " fill="#192A6C" transform="translate(123,97)"/>
<path d="M0 0 C0.99 0.33 1.98 0.66 3 1 C3 2.32 3 3.64 3 5 C5.47266765 4.65555119 5.47266765 4.65555119 8 4 C8.33 3.34 8.66 2.68 9 2 C9 3.32 9 4.64 9 6 C7.02 6.33 5.04 6.66 3 7 C0 2.25 0 2.25 0 0 Z " fill="#182A65" transform="translate(297,71)"/>
<path d="M0 0 C1.625 1.6875 1.625 1.6875 3 4 C2.1875 6.75 2.1875 6.75 1 9 C0.67 8.01 0.34 7.02 0 6 C-0.99 6.33 -1.98 6.66 -3 7 C-1.125 2.25 -1.125 2.25 0 0 Z " fill="#182D6C" transform="translate(178,57)"/>
<path d="M0 0 C1.4540625 0.0309375 1.4540625 0.0309375 2.9375 0.0625 C2.9375 2.0425 2.9375 4.0225 2.9375 6.0625 C2.2775 5.0725 1.6175 4.0825 0.9375 3.0625 C-0.0525 3.0625 -1.0425 3.0625 -2.0625 3.0625 C-2.7225 4.0525 -3.3825 5.0425 -4.0625 6.0625 C-4.105221 4.39638095 -4.10313832 2.72867115 -4.0625 1.0625 C-3.0625 0.0625 -3.0625 0.0625 0 0 Z " fill="#162963" transform="translate(400.0625,51.9375)"/>
<path d="M0 0 C-0.25 1.875 -0.25 1.875 -1 4 C-3.0625 5.25 -3.0625 5.25 -5 6 C-5.99 5.34 -6.98 4.68 -8 4 C-2.25 0 -2.25 0 0 0 Z " fill="#193486" transform="translate(376,99)"/>
<path d="M0 0 C0.66 0.33 1.32 0.66 2 1 C1.01 4.96 0.02 8.92 -1 13 C-1.33 13 -1.66 13 -2 13 C-3.46845421 7.52667068 -2.44038726 4.88077452 0 0 Z " fill="#172A66" transform="translate(273,76)"/>
<path d="M0 0 C1.4540625 0.0309375 1.4540625 0.0309375 2.9375 0.0625 C3.2675 1.3825 3.5975 2.7025 3.9375 4.0625 C0.56287285 3.51526317 -1.14485 3.0076 -4.0625 1.0625 C-3.0625 0.0625 -3.0625 0.0625 0 0 Z " fill="#173485" transform="translate(155.0625,63.9375)"/>
<path d="M0 0 C0.66 0.33 1.32 0.66 2 1 C1.67 5.29 1.34 9.58 1 14 C0.67 14 0.34 14 0 14 C-0.19456705 12.04235617 -0.38044247 10.08384679 -0.5625 8.125 C-0.66691406 7.03445312 -0.77132813 5.94390625 -0.87890625 4.8203125 C-1 2 -1 2 0 0 Z " fill="#142666" transform="translate(395,87)"/>
<path d="M0 0 C0.66 0.33 1.32 0.66 2 1 C2 3 2 3 0.75 4.6875 C0.1725 5.120625 -0.405 5.55375 -1 6 C-3.1875 5.6875 -3.1875 5.6875 -5 5 C-3.35 3.35 -1.7 1.7 0 0 Z " fill="#1B3689" transform="translate(49,72)"/>
<path d="M0 0 C-0.33 1.32 -0.66 2.64 -1 4 C-1.66 3.67 -2.32 3.34 -3 3 C-3 2.34 -3 1.68 -3 1 C-6.3 1 -9.6 1 -13 1 C-13 0.67 -13 0.34 -13 0 C-11.20909747 -0.19466332 -9.41723495 -0.38051213 -7.625 -0.5625 C-6.12839844 -0.71912109 -6.12839844 -0.71912109 -4.6015625 -0.87890625 C-2 -1 -2 -1 0 0 Z " fill="#172D7A" transform="translate(123,67)"/>
<path d="M0 0 C0.33 0 0.66 0 1 0 C1.66 3.63 2.32 7.26 3 11 C0.9375 9.4375 0.9375 9.4375 -1 7 C-0.75 3.25 -0.75 3.25 0 0 Z " fill="#14286D" transform="translate(345,90)"/>
<path d="M0 0 C1.32 0.66 2.64 1.32 4 2 C3.01 2.33 2.02 2.66 1 3 C-0.66710346 4.49985609 -0.66710346 4.49985609 -2 6 C-2.99 5.67 -3.98 5.34 -5 5 C-3.35 3.35 -1.7 1.7 0 0 Z " fill="#172B6F" transform="translate(250,97)"/>
<path d="M0 0 C0.99 0.33 1.98 0.66 3 1 C1.02579865 3.52259061 0.03254358 3.9929808 -3.1875 4.6875 C-4.5796875 4.8421875 -4.5796875 4.8421875 -6 5 C-2.25 1.125 -2.25 1.125 0 0 Z " fill="#172C71" transform="translate(281,64)"/>
<path d="M0 0 C2.64 0 5.28 0 8 0 C8 1.98 8 3.96 8 6 C6 5 6 5 5 2 C3.35 1.67 1.7 1.34 0 1 C0 0.67 0 0.34 0 0 Z " fill="#192C65" transform="translate(153,63)"/>
<path d="M0 0 C0 1.66666667 0 3.33333333 0 5 C-1.65 5.33 -3.3 5.66 -5 6 C-3.63016497 2.83884224 -3.0109362 2.0072908 0 0 Z " fill="#1D3988" transform="translate(247,102)"/>
<path d="M0 0 C1.89213369 2.38573379 3.02391783 4.07175348 4 7 C2.35 6.67 0.7 6.34 -1 6 C-0.67 4.02 -0.34 2.04 0 0 Z " fill="#162E78" transform="translate(393,98)"/>
<path d="M0 0 C0.66 0 1.32 0 2 0 C0.44499019 3.81684226 -2.03595495 6.19195732 -5 9 C-3.7580393 5.56072421 -2.44259716 2.74792181 0 0 Z " fill="#13256A" transform="translate(273,69)"/>
<path d="M0 0 C1.65 0 3.3 0 5 0 C5.33 0.66 5.66 1.32 6 2 C3.69 2.66 1.38 3.32 -1 4 C-0.67 2.68 -0.34 1.36 0 0 Z " fill="#18368C" transform="translate(353,67)"/>
<path d="" fill="#000000" transform="translate(0,0)"/>
<path d="" fill="#000055" transform="translate(0,0)"/>
<path d="" fill="#000000" transform="translate(0,0)"/>
<path d="" fill="#000000" transform="translate(0,0)"/>
<path d="" fill="#000000" transform="translate(0,0)"/>
<path d="" fill="#000000" transform="translate(0,0)"/>
<path d="" fill="#000055" transform="translate(0,0)"/>
<path d="" fill="#000000" transform="translate(0,0)"/>
</svg>
