<?xml version="1.0" encoding="UTF-8"?>
<svg version="1.1" xmlns="http://www.w3.org/2000/svg" width="443" height="159">
<path d="M0 0 C1.81077804 1.48154567 3.49302053 2.95281216 5.0625 4.6875 C5.7225 2.7075 6.3825 0.7275 7.0625 -1.3125 C9.0425 -1.3125 11.0225 -1.3125 13.0625 -1.3125 C12.55261607 8.30547654 11.23951865 17.65002026 9.58837891 27.12744141 C9.18590428 29.44669531 8.79753297 31.76802591 8.41015625 34.08984375 C4.80551958 55.31048281 4.80551958 55.31048281 -2.8359375 61.3125 C-8.63258059 65.1050992 -15.21424583 65.36956926 -21.9375 64.6875 C-27.79381141 62.95940811 -30.56768494 60.58904917 -33.9375 55.6875 C-33.9375 54.6975 -33.9375 53.7075 -33.9375 52.6875 C-31.9575 52.0275 -29.9775 51.3675 -27.9375 50.6875 C-27.545625 51.47125 -27.15375 52.255 -26.75 53.0625 C-24.55707219 56.23846441 -23.69967105 56.88703807 -19.9375 57.6875 C-15.07299215 57.75257703 -10.99797873 57.13097292 -6.5 55.25 C-2.85422788 51.60422788 -2.01416717 47.6363912 -0.9375 42.6875 C-1.2675 42.3575 -1.5975 42.0275 -1.9375 41.6875 C-2.865625 42.3475 -3.79375 43.0075 -4.75 43.6875 C-9.63464412 46.4773069 -14.46062086 46.36590497 -19.9375 45.6875 C-24.6690171 44.05297591 -27.41007385 42.02023055 -29.9375 37.6875 C-32.64619286 29.17047605 -32.43511702 21.09129485 -28.671875 12.94921875 C-25.253624 6.87732552 -21.72854575 2.89894335 -15.6875 -0.625 C-10.38377223 -1.95093194 -5.04007137 -2.25194678 0 0 Z M-17.9375 8.6875 C-23.01733046 14.74576747 -25.33335134 21.51014474 -24.8125 29.375 C-24.23194434 33.42490031 -22.92053282 35.79486212 -19.9375 38.6875 C-16.70632657 40.30308672 -13.44023277 40.1253416 -9.9375 39.6875 C-3.70708292 37.15309305 -0.90218261 33.65361748 2.0625 27.6875 C3.89436031 22.19191907 4.28905822 15.03321078 2.2734375 9.53515625 C0.48272187 6.73972612 -0.76739698 5.74420101 -3.9375 4.6875 C-9.52589713 4.15015412 -13.63682592 5.03346665 -17.9375 8.6875 Z " fill="#285FDC" transform="translate(70.9375,64.3125)"/>
<path d="M0 0 C3.48079902 3.69175654 4.04437889 6.04587005 4.125 11.125 C3.43912799 15.44436063 1.37585943 17.43456287 -2.04296875 20.00390625 C-10.33787314 25.18608363 -20.54302524 24.31464327 -29.9375 24.1875 C-29.68129316 25.7940676 -29.40694129 27.3977483 -29.125 29 C-28.97417969 29.89332031 -28.82335937 30.78664062 -28.66796875 31.70703125 C-27.87276553 34.40732025 -27.11059845 35.45230552 -24.9375 37.1875 C-21.23056332 39.04096834 -16.98313761 38.64808028 -12.9375 38.1875 C-9.55127224 36.5143025 -9.55127224 36.5143025 -6.9375 34.1875 C-5.761875 33.32125 -5.761875 33.32125 -4.5625 32.4375 C-4.02625 32.025 -3.49 31.6125 -2.9375 31.1875 C-1.6175 31.8475 -0.2975 32.5075 1.0625 33.1875 C-0.0510874 37.92024646 -2.69745366 40.19675965 -6.52734375 42.88671875 C-11.98220588 45.83075293 -18.15448139 46.82545586 -24.25 45.625 C-29.67207695 43.51130899 -32.81076134 41.06539776 -35.8125 36.0625 C-38.7383406 28.03385407 -37.31817346 18.83849783 -33.9375 11.1875 C-29.86352106 4.15062728 -24.49636272 -1.05611448 -16.5625 -3.25 C-10.44847041 -4.34551725 -5.25914008 -3.24500133 0 0 Z M-25.1875 9.5625 C-27.06038444 12.37182665 -27.93069207 14.98161159 -28.9375 18.1875 C-16.48317357 19.03549487 -16.48317357 19.03549487 -4.9375 15.1875 C-3.34776274 12.69291229 -2.90671837 11.60818231 -3.125 8.625 C-4.02854765 5.91435706 -4.71071825 4.93711423 -6.9375 3.1875 C-14.74960194 1.6949986 -19.78808737 3.86312 -25.1875 9.5625 Z " fill="#2760DE" transform="translate(253.9375,65.8125)"/>
<path d="M0 0 C2.95700085 3.49463737 3.72974502 6.91690191 4.0625 11.4375 C3.16384902 16.3800804 0.04808949 18.60159979 -3.9375 21.4375 C-12.27171574 24.98397478 -21.05083161 24.5577707 -29.9375 24.4375 C-29.68129316 26.0440676 -29.40694129 27.6477483 -29.125 29.25 C-28.97417969 30.14332031 -28.82335937 31.03664062 -28.66796875 31.95703125 C-27.87276553 34.65732025 -27.11059845 35.70230552 -24.9375 37.4375 C-21.23056332 39.29096834 -16.98313761 38.89808028 -12.9375 38.4375 C-9.55127224 36.7643025 -9.55127224 36.7643025 -6.9375 34.4375 C-5.761875 33.57125 -5.761875 33.57125 -4.5625 32.6875 C-4.02625 32.275 -3.49 31.8625 -2.9375 31.4375 C-1.6175 32.0975 -0.2975 32.7575 1.0625 33.4375 C-0.0510874 38.17024646 -2.69745366 40.44675965 -6.52734375 43.13671875 C-11.98220588 46.08075293 -18.15448139 47.07545586 -24.25 45.875 C-29.64469916 43.77198168 -32.7827571 41.32358008 -35.8125 36.375 C-38.71157209 28.37217225 -37.42576714 19.6741022 -34.26171875 11.98046875 C-30.5499743 4.85260552 -25.50042576 0.16077574 -17.9375 -2.5625 C-11.63526007 -4.43976296 -5.7002255 -3.03203484 0 0 Z M-25.1875 9.8125 C-27.06038444 12.62182665 -27.93069207 15.23161159 -28.9375 18.4375 C-16.48317357 19.28549487 -16.48317357 19.28549487 -4.9375 15.4375 C-3.16376814 12.70439116 -2.92511739 11.64387682 -3.125 8.3125 C-3.68661961 5.13542816 -3.68661961 5.13542816 -6.9375 3.4375 C-14.87103789 2.26317253 -19.64361627 3.96062273 -25.1875 9.8125 Z " fill="#2A5DCC" transform="translate(126.9375,65.5625)"/>
<path d="M0 0 C3.07295056 3.8411882 3.41737406 6.35393974 3.33203125 11.1796875 C2.90781819 14.14418816 1.76322318 16.16143185 -0.3359375 18.29907227 C-6.21565312 22.54237055 -14.05917645 23.09528722 -21.0625 23.6875 C-21.92810547 23.76935547 -22.79371094 23.85121094 -23.68554688 23.93554688 C-25.78949774 24.13315552 -27.89464582 24.31795005 -30 24.5 C-29.77082032 26.10727327 -29.51579198 27.71087416 -29.25 29.3125 C-29.04117187 30.65248047 -29.04117187 30.65248047 -28.828125 32.01953125 C-27.80040973 35.09782936 -26.83337214 35.96629417 -24 37.5 C-19.10803105 38.40956207 -14.44795741 38.11349771 -10.0625 35.6875 C-7.77899114 34.05642224 -5.80765331 32.62665095 -4 30.5 C-2.35 31.16 -0.7 31.82 1 32.5 C-0.1135874 37.23274646 -2.75995366 39.50925965 -6.58984375 42.19921875 C-12.00743882 45.12313959 -18.18303043 46.12873852 -24.25 45 C-28.58302703 43.61806751 -32.09653628 40.97630927 -35 37.5 C-38.57396644 30.57766634 -38.01855013 21.15127075 -36.0625 13.75 C-33.45599275 7.15343663 -27.82899861 0.41273878 -21.3125 -2.5625 C-13.43903895 -4.79083803 -6.60890286 -5.50741905 0 0 Z M-25.54296875 8.44140625 C-28.32801235 12.62160206 -28.32801235 12.62160206 -29 17.5 C-17.15591165 18.03825777 -17.15591165 18.03825777 -6 14.5 C-3.64360592 12.56110754 -3.64360592 12.56110754 -3.625 9.0625 C-3.68635384 5.57959451 -3.68635384 5.57959451 -5.4375 3.5625 C-12.83764323 0.49414793 -20.54240761 2.14956097 -25.54296875 8.44140625 Z " fill="#2A5DCD" transform="translate(377,66.5)"/>
<path d="M0 0 C4.24802414 2.2207675 6.67743049 5.11957278 8.86328125 9.31640625 C8.86328125 10.63640625 8.86328125 11.95640625 8.86328125 13.31640625 C6.88328125 13.64640625 4.90328125 13.97640625 2.86328125 14.31640625 C-0.13671875 9.56640625 -0.13671875 9.56640625 -0.13671875 7.31640625 C-4.02899091 6.0189822 -8.08404973 5.83298649 -12.13671875 6.31640625 C-14.95452409 7.70525873 -14.95452409 7.70525873 -17.13671875 9.31640625 C-17.79671875 9.31640625 -18.45671875 9.31640625 -19.13671875 9.31640625 C-19.8244628 10.63899097 -20.48383248 11.97627128 -21.13671875 13.31640625 C-21.65234375 14.32703125 -22.16796875 15.33765625 -22.69921875 16.37890625 C-25.17239382 22.27647757 -26.29028232 29.31939599 -23.88671875 35.37890625 C-22.30332953 38.51655042 -22.30332953 38.51655042 -19.13671875 40.31640625 C-14.47351535 41.08028338 -10.96667803 40.74675551 -6.76171875 38.56640625 C-4.46882077 36.60106512 -2.76263981 34.84561678 -1.13671875 32.31640625 C1.83328125 32.81140625 1.83328125 32.81140625 4.86328125 33.31640625 C4.37406032 37.55875488 3.32704097 39.2990165 0.05078125 42.00390625 C-0.63628906 42.58527344 -1.32335937 43.16664062 -2.03125 43.765625 C-6.41139824 46.99181953 -10.66305493 48.36467489 -16.13671875 48.31640625 C-22.20509402 47.36148425 -26.2864131 45.11681379 -29.98046875 40.19140625 C-33.90193622 33.83226981 -33.48732628 27.39980833 -32.13671875 20.31640625 C-29.51023585 11.54071693 -25.88978492 6.09369782 -18.0390625 1.33203125 C-12.66167509 -1.5388532 -5.79471747 -1.85388584 0 0 Z " fill="#285CCE" transform="translate(297.13671875,63.68359375)"/>
<path d="M0 0 C2.31 0 4.62 0 7 0 C6.67 3.63 6.34 7.26 6 11 C8.64 11 11.28 11 14 11 C14.04254356 12.99954746 14.04080783 15.00041636 14 17 C13 18 13 18 11.15234375 18.09765625 C9.1015625 18.06510417 7.05078125 18.03255208 5 18 C2.7970047 29.30518183 0.6085409 40.59205859 -1 52 C1.64 52 4.28 52 7 52 C7 54.31 7 56.62 7 59 C5.58376784 59.05447047 4.16691809 59.09300508 2.75 59.125 C1.96109375 59.14820313 1.1721875 59.17140625 0.359375 59.1953125 C-2.24024542 58.98011213 -3.7890415 58.3576061 -6 57 C-8.73447513 53.44518233 -8.26941362 49.27176836 -8 45 C-7.27792576 39.77279093 -6.28780793 34.59322049 -5.33398438 29.40429688 C-5.15029297 28.36724609 -4.96660156 27.33019531 -4.77734375 26.26171875 C-4.60452881 25.32287842 -4.43171387 24.38403809 -4.25366211 23.41674805 C-3.81690989 20.86005359 -3.81690989 20.86005359 -5 18 C-6.65 17.67 -8.3 17.34 -10 17 C-9.34 15.02 -8.68 13.04 -8 11 C-6.02 11 -4.04 11 -2 11 C-1.34 7.37 -0.68 3.74 0 0 Z " fill="#295DD0" transform="translate(147,52)"/>
<path d="M0 0 C1.4540625 0.0309375 1.4540625 0.0309375 2.9375 0.0625 C2.6075 3.6925 2.2775 7.3225 1.9375 11.0625 C4.5775 11.0625 7.2175 11.0625 9.9375 11.0625 C10.625 12.875 10.625 12.875 10.9375 15.0625 C10 16.8125 10 16.8125 7.9375 18.0625 C5.21853489 18.3140578 2.67938232 18.19734667 -0.0625 18.0625 C-0.11148437 18.78953125 -0.16046875 19.5165625 -0.2109375 20.265625 C-0.61031761 25.63659895 -1.15449949 30.88760358 -2.125 36.1875 C-3.07682464 41.5318191 -3.27818457 46.64642076 -3.0625 52.0625 C-2.093125 52.041875 -1.12375 52.02125 -0.125 52 C2.9375 52.0625 2.9375 52.0625 3.9375 53.0625 C4.0625 55.5625 4.0625 55.5625 3.9375 58.0625 C2.37799449 59.62200551 0.84872869 59.34446698 -1.3125 59.4375 C-4.80267419 59.36513594 -6.01380419 59.09131997 -9.125 57.25 C-13.83377756 49.50330144 -10.53158344 38.3470454 -9.0625 29.875 C-8.87171875 28.73224609 -8.6809375 27.58949219 -8.484375 26.41210938 C-8.01832628 23.62746826 -7.5442577 20.84445855 -7.0625 18.0625 C-9.0425 17.7325 -11.0225 17.4025 -13.0625 17.0625 C-12.7325 15.0825 -12.4025 13.1025 -12.0625 11.0625 C-9.7525 11.0625 -7.4425 11.0625 -5.0625 11.0625 C-5.00191406 10.35222656 -4.94132812 9.64195313 -4.87890625 8.91015625 C-4.79511719 7.99105469 -4.71132813 7.07195313 -4.625 6.125 C-4.54378906 5.20847656 -4.46257812 4.29195312 -4.37890625 3.34765625 C-3.89440408 -0.1515261 -3.64350125 0.07435717 0 0 Z " fill="#245DD9" transform="translate(400.0625,51.9375)"/>
<path d="M0 0 C7.10302979 0.68738998 12.30419567 3.89003481 16.875 9.375 C20.104979 14.2756578 20.83058955 18.66001784 19.875 24.375 C18.62913021 27.98621679 16.85373883 31.1156288 14.875 34.375 C14.22015625 35.47972656 13.5653125 36.58445313 12.890625 37.72265625 C8.51135062 44.7669724 4.20567628 50.11494271 -4.125 52.375 C-10.57784056 53.53265246 -15.77025141 52.09898424 -21.125 48.375 C-25.40029033 44.09970967 -27.64017992 39.12231378 -28.6875 33.1875 C-27.35852946 24.18003298 -21.84675147 16.2735656 -16.125 9.375 C-15.135 9.705 -14.145 10.035 -13.125 10.375 C-13.73962878 14.42374511 -15.89683107 17.11259607 -18.1875 20.4375 C-21.53588526 25.60581907 -23.17376398 29.77369222 -22.6484375 35.99609375 C-21.56552314 40.91769707 -19.47031528 43.45773958 -15.375 46.25 C-10.71831093 47.86193083 -6.71701422 48.52471234 -2.16333008 46.50488281 C3.12947687 43.32114021 6.17008867 39.90065399 9.3125 34.625 C9.74498047 33.95984375 10.17746094 33.2946875 10.62304688 32.609375 C14.03840072 27.05073963 15.8218988 21.34705599 14.2734375 14.8515625 C12.03818154 10.80762615 10.37287211 8.07419613 5.875 6.375 C3.53209485 6.07806931 1.22318452 5.87643938 -1.13671875 5.78125 C-3.125 5.375 -3.125 5.375 -5.125 2.375 C-3.125 0.375 -3.125 0.375 0 0 Z " fill="#2757C1" transform="translate(188.125,72.625)"/>
<path d="M0 0 C5.40197084 3.23307448 9.17786112 7.25204067 11.70703125 13.05859375 C13.51496384 21.8018743 10.23387801 27.82413903 5.75 34.9921875 C5.07582031 36.00410156 4.40164062 37.01601562 3.70703125 38.05859375 C3.18753906 38.85394531 2.66804688 39.64929688 2.1328125 40.46875 C1.66230469 40.99339844 1.19179687 41.51804688 0.70703125 42.05859375 C-0.28296875 42.05859375 -1.27296875 42.05859375 -2.29296875 42.05859375 C-1.78372561 37.27736651 -0.47042033 34.28087847 2.20703125 30.30859375 C2.83609375 29.365 3.46515625 28.42140625 4.11328125 27.44921875 C4.63921875 26.6603125 5.16515625 25.87140625 5.70703125 25.05859375 C7.6914902 21.08967584 7.3826562 16.18721933 6.05859375 12.015625 C4.3578771 8.60692367 2.66955652 7.03667457 -0.60546875 5.12109375 C-5.91422597 3.59145184 -9.51373906 3.25290483 -14.60546875 5.55859375 C-15.49234375 6.05359375 -16.37921875 6.54859375 -17.29296875 7.05859375 C-17.95296875 7.05859375 -18.61296875 7.05859375 -19.29296875 7.05859375 C-19.53917969 7.75726563 -19.78539062 8.4559375 -20.0390625 9.17578125 C-21.47685246 12.48135442 -23.30823106 15.21862882 -25.35546875 18.18359375 C-29.61602371 24.36255411 -30.99231046 28.62014099 -30.29296875 36.05859375 C-29.06543209 39.54738216 -27.99676389 41.44010711 -25.23046875 43.87109375 C-21.00862655 45.57779592 -16.81092692 45.80418445 -12.29296875 46.05859375 C-11.73046875 47.99609375 -11.73046875 47.99609375 -11.29296875 50.05859375 C-12.29296875 51.05859375 -12.29296875 51.05859375 -15.85546875 51.37109375 C-21.56297246 51.26899172 -25.97047676 49.27528893 -30.09375 45.33984375 C-34.80156263 40.03653215 -35.67438079 35.93160304 -35.5546875 28.87890625 C-35.14727423 24.48857218 -33.70869847 21.70067606 -31.29296875 18.05859375 C-30.93847656 17.51734863 -30.58398438 16.97610352 -30.21875 16.41845703 C-28.97210524 14.53386502 -27.70077938 12.66874088 -26.41796875 10.80859375 C-26.00756348 10.2055542 -25.5971582 9.60251465 -25.17431641 8.98120117 C-19.32691331 0.78180196 -9.94074703 -4.08129478 0 0 Z " fill="#2758C2" transform="translate(209.29296875,38.94140625)"/>
<path d="M0 0 C1.65 0 3.3 0 5 0 C5.33 1.32 5.66 2.64 6 4 C6.99 3.34 7.98 2.68 9 2 C13.1507982 -0.41068853 16.27319955 -0.33170529 21 0 C20.67 2.31 20.34 4.62 20 7 C19.40832031 7.02578125 18.81664062 7.0515625 18.20703125 7.078125 C14.39513671 7.3517357 11.54446273 7.71593249 8.125 9.5 C2.68143709 15.90419166 2.10127685 25.34043406 0.875 33.375 C0.54113959 35.50813862 0.20529443 37.64096784 -0.1328125 39.7734375 C-0.27605957 40.70591309 -0.41930664 41.63838867 -0.56689453 42.59912109 C-1 45 -1 45 -2 48 C-3.98 48 -5.96 48 -8 48 C-9.22085192 45.55829616 -8.94237888 44.6423332 -8.50268555 41.98095703 C-8.36892014 41.15314728 -8.23515472 40.32533752 -8.09733582 39.47244263 C-7.94533218 38.57661469 -7.79332855 37.68078674 -7.63671875 36.7578125 C-7.48467484 35.8378952 -7.33263092 34.91797791 -7.17597961 33.97018433 C-6.85203976 32.02109337 -6.52481253 30.0725464 -6.19458008 28.12451172 C-5.69100427 25.14572869 -5.20123055 22.16490778 -4.71289062 19.18359375 C-4.39666481 17.29152751 -4.0796338 15.39959564 -3.76171875 13.5078125 C-3.61578781 12.61603302 -3.46985687 11.72425354 -3.31950378 10.80545044 C-3.17628189 9.97133636 -3.03306 9.13722229 -2.88549805 8.27783203 C-2.76256882 7.5466214 -2.63963959 6.81541077 -2.51298523 6.06204224 C-1.95876366 3.83424263 -1.09613836 2.01047522 0 0 Z " fill="#2B5CCB" transform="translate(319,63)"/>
<path d="M0 0 C1.98 0 3.96 0 6 0 C5.46225282 10.49534144 3.84374439 20.6680739 2 31 C-0.11672187 27.58567085 -0.12506778 25.26115378 0.3125 21.3125 C0.41175781 20.33925781 0.51101562 19.36601563 0.61328125 18.36328125 C1 16 1 16 2 15 C2.20896317 13.19188816 2.36780361 11.37783968 2.5 9.5625 C2.89007634 4.21984733 2.89007634 4.21984733 4 2 C3.01 2.66 2.02 3.32 1 4 C0.74969023 6.58380177 0.74969023 6.58380177 1 9 C-0.32 9 -1.64 9 -3 9 C-2.97643433 9.90709717 -2.97643433 9.90709717 -2.95239258 10.83251953 C-2.8896812 13.59658296 -2.85089589 16.36049621 -2.8125 19.125 C-2.77479492 20.55199219 -2.77479492 20.55199219 -2.73632812 22.0078125 C-2.67857888 27.55173963 -3.1027688 31.11805137 -6 36 C-6 36.99 -6 37.98 -6 39 C-6 40.66666667 -6 42.33333333 -6 44 C-6.66 43.34 -7.32 42.68 -8 42 C-9.3921875 43.0209375 -9.3921875 43.0209375 -10.8125 44.0625 C-11.864375 44.701875 -12.91625 45.34125 -14 46 C-14.99 45.67 -15.98 45.34 -17 45 C-15.515 44.505 -15.515 44.505 -14 44 C-14.103125 43.2575 -14.20625 42.515 -14.3125 41.75 C-14.209375 40.8425 -14.10625 39.935 -14 39 C-13.2575 38.4225 -12.515 37.845 -11.75 37.25 C-6.99117583 33.35641659 -5.29367748 28.75730522 -4.6484375 22.69921875 C-4.37017044 14.7950935 -4.37017044 14.7950935 -8 8 C-10.47061919 6.97726136 -10.47061919 6.97726136 -13.1875 6.6875 C-14.08855469 6.54699219 -14.98960938 6.40648438 -15.91796875 6.26171875 C-16.60503906 6.17535156 -17.29210938 6.08898437 -18 6 C-14.20960634 3.87000003 -11.34263862 3.83297544 -7 4 C-6.67 3.34 -6.34 2.68 -6 2 C-4.68 3.32 -3.36 4.64 -2 6 C-1.34 4.02 -0.68 2.04 0 0 Z " fill="#2A5BCB" transform="translate(78,63)"/>
<path d="M0 0 C0.33 0 0.66 0 1 0 C1.495 3.96 1.495 3.96 2 8 C1.34 8.33 0.68 8.66 0 9 C-0.103125 9.61875 -0.20625 10.2375 -0.3125 10.875 C-1.30328123 13.93741472 -3.26097814 14.49353798 -6 16 C-6.33 16.66 -6.66 17.32 -7 18 C-5.02 17.67 -3.04 17.34 -1 17 C-3.61518428 20.38435612 -6.93569249 21.31628472 -11 22 C-17.32305151 22.5886629 -22.39718124 22.29577574 -28 19 C-30.0460829 17.099324 -31.39319165 15.33717578 -33 13 C-33 12.01 -33 11.02 -33 10 C-31.02 9.34 -29.04 8.68 -27 8 C-26.608125 8.78375 -26.21625 9.5675 -25.8125 10.375 C-23.61957219 13.55096441 -22.76217105 14.19953807 -19 15 C-14.13549215 15.06507703 -10.06047873 14.44347292 -5.5625 12.5625 C-1.91672788 8.91672788 -1.07666717 4.9488912 0 0 Z " fill="#255FDD" transform="translate(70,107)"/>
<path d="M0 0 C-0.8125 2.9375 -0.8125 2.9375 -2 6 C-2.99 6.33 -3.98 6.66 -5 7 C-6.10168984 8.69769234 -6.10168984 8.69769234 -7 11 C-7.49113281 11.99902344 -7.98226563 12.99804688 -8.48828125 14.02734375 C-10.42559561 18.54499596 -10.78474253 23.07854521 -11.1875 27.9375 C-11.26935547 28.81212891 -11.35121094 29.68675781 -11.43554688 30.58789062 C-11.63401366 32.72432723 -11.81845654 34.86205884 -12 37 C-12.99 37 -13.98 37 -15 37 C-17.15240506 29.19753164 -18.98365338 19.45278234 -16.14453125 11.6484375 C-14.54246098 9.34101889 -12.57251425 8.98942856 -10 8 C-9.67 7.01 -9.34 6.02 -9 5 C-8.01 4.67 -7.02 4.34 -6 4 C-5.67 3.01 -5.34 2.02 -5 1 C-2 0 -2 0 0 0 Z " fill="#285FD0" transform="translate(283,66)"/>
<path d="M0 0 C0.66 0.33 1.32 0.66 2 1 C1.83701416 1.8470752 1.67402832 2.69415039 1.50610352 3.56689453 C0.98815457 7.08035236 0.88663723 10.380014 0.90234375 13.9296875 C0.90556641 15.21875 0.90878906 16.5078125 0.91210938 17.8359375 C0.92046267 19.18229236 0.92892759 20.52864652 0.9375 21.875 C0.9425217 23.24479004 0.94708343 24.61458185 0.95117188 25.984375 C0.96292746 29.3229619 0.97936036 32.66145815 1 36 C2.98 36 4.96 36 7 36 C7 36.99 7 37.98 7 39 C5.5629191 39.05422947 4.12524538 39.09289723 2.6875 39.125 C1.88699219 39.14820313 1.08648437 39.17140625 0.26171875 39.1953125 C-2 39 -2 39 -5 37 C-6.64734588 31.77050604 -5.96473948 26.71811588 -4.60546875 21.52734375 C-3.6257172 17.43767115 -3.13188015 13.27687358 -2.5625 9.11328125 C-1.98832982 5.93540879 -1.09205915 3.0350144 0 0 Z " fill="#255FE1" transform="translate(396,70)"/>
<path d="M0 0 C-0.33 2.97 -0.66 5.94 -1 9 C5.6 9.33 12.2 9.66 19 10 C18 12 18 12 14.9375 13.125 C10.85194075 14.18640302 7.21175239 14.28078349 3 14 C2.01 13.34 1.02 12.68 0 12 C-0.99 12 -1.98 12 -3 12 C-3.39804845 21.20692462 -3.39804845 21.20692462 -1 30 C-1.99 30 -2.98 30 -4 30 C-8.55964692 23.73048548 -8.48293562 18.5861137 -8 11 C-7.979375 10.19304687 -7.95875 9.38609375 -7.9375 8.5546875 C-7.8125 6.4375 -7.8125 6.4375 -7 3 C-4.56990326 1.00607447 -3.16090285 0 0 0 Z " fill="#2461E9" transform="translate(349,75)"/>
<path d="M0 0 C2.93642886 2.36808779 3.93024856 3.72597649 4.875 7.4375 C5.00563861 11.1607003 4.91287957 12.83959027 3 16 C-5.44380942 24.25190466 -15.19118307 24.12363215 -26.40234375 24.03515625 C-27.25957031 24.02355469 -28.11679688 24.01195313 -29 24 C-29 23.67 -29 23.34 -29 23 C-25.04 23 -21.08 23 -17 23 C-17 22.34 -17 21.68 -17 21 C-13.535 20.505 -13.535 20.505 -10 20 C-15.28 19.67 -20.56 19.34 -26 19 C-26 18.67 -26 18.34 -26 18 C-24.74703125 17.87882812 -23.4940625 17.75765625 -22.203125 17.6328125 C-20.55204135 17.46395167 -18.90100191 17.29465817 -17.25 17.125 C-16.425 17.04636719 -15.6 16.96773437 -14.75 16.88671875 C-13.55117187 16.76103516 -13.55117187 16.76103516 -12.328125 16.6328125 C-11.5949707 16.55949707 -10.86181641 16.48618164 -10.10644531 16.41064453 C-7.73531465 15.94840047 -6.03662641 15.30218658 -4 14 C-2.70768358 10.95800528 -2.70768358 10.95800528 -2 8 C-1.896875 8.639375 -1.79375 9.27875 -1.6875 9.9375 C-1.460625 10.618125 -1.23375 11.29875 -1 12 C-0.01 12.33 0.98 12.66 2 13 C1.85851011 11.3954444 1.71164314 9.79136233 1.5625 8.1875 C1.48128906 7.29417969 1.40007812 6.40085937 1.31640625 5.48046875 C1.06510233 2.87256441 1.06510233 2.87256441 0 0 Z " fill="#2B5FCF" transform="translate(253,66)"/>
<path d="M0 0 C2.31 0 4.62 0 7 0 C6.67 3.63 6.34 7.26 6 11 C8.64 11 11.28 11 14 11 C14.04254356 12.99954746 14.04080783 15.00041636 14 17 C13.67 17.33 13.34 17.66 13 18 C10.96925687 17.93553196 8.93806533 17.86732164 6.91015625 17.7421875 C6.27980469 17.82726562 5.64945313 17.91234375 5 18 C4.34 18.99 3.68 19.98 3 21 C2.01 19.68 1.02 18.36 0 17 C2.4571936 15.4528781 3.632279 14.95515598 6.5625 15.3125 C8.38901612 15.82767121 10.19960942 16.39986981 12 17 C12 15.68 12 14.36 12 13 C9.98177083 13.09765625 7.96354167 13.1953125 5.9453125 13.29296875 C5.30335938 13.19628906 4.66140625 13.09960938 4 13 C3.34 12.01 2.68 11.02 2 10 C1.34 10.66 0.68 11.32 0 12 C-2.65537372 12.56520003 -5.29144713 12.73788198 -8 13 C-8.33 14.32 -8.66 15.64 -9 17 C-9.33 16.34 -9.66 15.68 -10 15 C-9.0625 12.875 -9.0625 12.875 -8 11 C-6.02 11 -4.04 11 -2 11 C-1.34 7.37 -0.68 3.74 0 0 Z " fill="#2C5ABF" transform="translate(147,52)"/>
<path d="M0 0 C1.65 0.66 3.3 1.32 5 2 C3.69114898 7.56261684 -0.38885971 10.1146132 -5 13 C-10.68367887 14.89455962 -15.49803017 14.14711018 -21 12 C-20.67 11.34 -20.34 10.68 -20 10 C-17.63671875 9.62109375 -17.63671875 9.62109375 -14.6875 9.4375 C-11.33241217 9.21800827 -8.23655269 8.93022061 -5 8 C-4.9175 7.4225 -4.835 6.845 -4.75 6.25 C-3.79468987 3.3840696 -2.21530827 2.0009236 0 0 Z " fill="#2C5ED0" transform="translate(123,97)"/>
<path d="M0 0 C0.33 0.66 0.66 1.32 1 2 C3.52733235 2.65555119 3.52733235 2.65555119 6 3 C6 3.99 6 4.98 6 6 C4.02 6.99 4.02 6.99 2 8 C1.66733709 14.20970773 2.54970669 18.28264895 5 24 C3.68 24.33 2.36 24.66 1 25 C0.34 23.35 -0.32 21.7 -1 20 C-1.66 20 -2.32 20 -3 20 C-3.33 18.35 -3.66 16.7 -4 15 C-4.33 15 -4.66 15 -5 15 C-5.2288964 11.96712265 -5.36130698 9.02527187 -5 6 C-3.0625 4.125 -3.0625 4.125 -1 3 C-0.67 2.01 -0.34 1.02 0 0 Z " fill="#2461EA" transform="translate(96,82)"/>
<path d="M0 0 C1.3357457 3.77371512 0.72408671 6.85831347 0.0625 10.75 C-0.13214844 11.92046875 -0.32679688 13.0909375 -0.52734375 14.296875 C-0.76130859 15.63492188 -0.76130859 15.63492188 -1 17 C1.64 17 4.28 17 7 17 C7 19.31 7 21.62 7 24 C5.58376784 24.05447047 4.16691809 24.09300508 2.75 24.125 C1.56664062 24.15980469 1.56664062 24.15980469 0.359375 24.1953125 C-2.24024542 23.98011213 -3.7890415 23.3576061 -6 22 C-8.77635896 18.39073335 -8.14475788 14.34273654 -8 10 C-6.00902154 12.98646769 -5.05875074 15.59687262 -4 19 C-3.67 19 -3.34 19 -3 19 C-2.95101562 17.96359375 -2.90203125 16.9271875 -2.8515625 15.859375 C-2.77650403 14.48955792 -2.70095753 13.11976752 -2.625 11.75 C-2.57859375 10.72712891 -2.57859375 10.72712891 -2.53125 9.68359375 C-2.31740626 6.01260962 -1.98922945 3.13748384 0 0 Z " fill="#295CCA" transform="translate(147,87)"/>
<path d="M0 0 C0.93423645 3.01031744 1.04449911 3.86650268 0 7 C-0.1447963 8.95475009 -0.22067502 10.9151138 -0.25 12.875 C-0.28867187 14.41800781 -0.28867187 14.41800781 -0.328125 15.9921875 C0.04242686 19.38891293 1.13529984 21.18332134 3 24 C3 24.66 3 25.32 3 26 C3.99 26 4.98 26 6 26 C5.505 25.278125 5.01 24.55625 4.5 23.8125 C1.85832296 18.69037503 2.77609134 12.58942357 3 7 C5.375 6.875 5.375 6.875 8 7 C8.66 7.66 9.32 8.32 10 9 C12.65537372 9.56520003 15.29144713 9.73788198 18 10 C18 10.33 18 10.66 18 11 C11.565 11.495 11.565 11.495 5 12 C5.96000888 20.0646775 5.96000888 20.0646775 11 26 C10.030625 26.12375 9.06125 26.2475 8.0625 26.375 C7.051875 26.58125 6.04125 26.7875 5 27 C4.67 27.66 4.34 28.32 4 29 C-0.73202088 23.53997591 -2.14793536 20.61773986 -2.1875 13.1875 C-2.20167969 11.98480469 -2.21585937 10.78210938 -2.23046875 9.54296875 C-2.00124672 6.01916575 -1.27030979 3.27870472 0 0 Z " fill="#2D5CC3" transform="translate(342,79)"/>
<path d="M0 0 C1.03125 -0.00257812 2.0625 -0.00515625 3.125 -0.0078125 C5.64351861 0.10853211 7.65657512 0.21483051 10 1.125 C12.20914 4.43871 12.22481553 5.4696021 12.125 9.3125 C12.10695312 10.21355469 12.08890625 11.11460938 12.0703125 12.04296875 C12.04710937 12.73003906 12.02390625 13.41710937 12 14.125 C10.68 13.795 9.36 13.465 8 13.125 C8.33 11.805 8.66 10.485 9 9.125 C8.34 9.125 7.68 9.125 7 9.125 C4 5.66346154 4 5.66346154 4 3.125 C-0.95 3.455 -5.9 3.785 -11 4.125 C-10.67 3.135 -10.34 2.145 -10 1.125 C-6.77593759 -0.17358069 -3.43562365 -0.00858906 0 0 Z " fill="#2561E5" transform="translate(243,64.875)"/>
<path d="M0 0 C0.6875 2.0625 0.6875 2.0625 1 4 C-0.11375 3.979375 -1.2275 3.95875 -2.375 3.9375 C-7.28920414 3.92869318 -12.1225081 4.44028782 -17 5 C-17 5.66 -17 6.32 -17 7 C-17.66 7 -18.32 7 -19 7 C-19.33 7.99 -19.66 8.98 -20 10 C-20.66 9.34 -21.32 8.68 -22 8 C-21.4375 5.1875 -21.4375 5.1875 -20 2 C-13.94507065 -1.78433085 -6.76669712 -2.25556571 0 0 Z " fill="#235FEB" transform="translate(71,64)"/>
<path d="M0 0 C0.66 0.99 1.32 1.98 2 3 C3.96361864 3.57748803 3.96361864 3.57748803 6.125 3.6875 C7.40375 3.790625 8.6825 3.89375 10 4 C10 5.32 10 6.64 10 8 C7.98177083 7.67447917 5.96354167 7.34895833 3.9453125 7.0234375 C3.30335938 7.01570313 2.66140625 7.00796875 2 7 C1.34 7.66 0.68 8.32 0 9 C0 9.99 0 10.98 0 12 C-0.66 12.66 -1.32 13.32 -2 14 C-2.33 12.35 -2.66 10.7 -3 9 C-5.64 9 -8.28 9 -11 9 C-10.67 7.35 -10.34 5.7 -10 4 C-9.36191406 3.79503906 -8.72382813 3.59007813 -8.06640625 3.37890625 C-7.24011719 3.10949219 -6.41382813 2.84007812 -5.5625 2.5625 C-4.73878906 2.29566406 -3.91507813 2.02882812 -3.06640625 1.75390625 C-1.03780412 1.17844506 -1.03780412 1.17844506 0 0 Z " fill="#2562EB" transform="translate(149,61)"/>
<path d="M0 0 C1.2065625 0.0309375 1.2065625 0.0309375 2.4375 0.0625 C0.4575 1.0525 0.4575 1.0525 -1.5625 2.0625 C-1.5625 5.0325 -1.5625 8.0025 -1.5625 11.0625 C-0.9025 11.0625 -0.2425 11.0625 0.4375 11.0625 C0.7675 10.0725 1.0975 9.0825 1.4375 8.0625 C3.0875 8.0625 4.7375 8.0625 6.4375 8.0625 C5.2928125 9.5165625 5.2928125 9.5165625 4.125 11 C-0.04671829 17.53016129 -0.51075625 25.53782927 -1.5625 33.0625 C-1.8925 33.0625 -2.2225 33.0625 -2.5625 33.0625 C-2.5625 27.1225 -2.5625 21.1825 -2.5625 15.0625 C-3.5525 16.5475 -3.5525 16.5475 -4.5625 18.0625 C-5.2225 19.0525 -5.8825 20.0425 -6.5625 21.0625 C-5.07526431 0.12378693 -5.07526431 0.12378693 0 0 Z " fill="#2A5CC6" transform="translate(321.5625,62.9375)"/>
<path d="M0 0 C0.66 0.33 1.32 0.66 2 1 C2.33 8.92 2.66 16.84 3 25 C1.35 25 -0.3 25 -2 25 C-1.979375 24.05125 -1.95875 23.1025 -1.9375 22.125 C-1.77448174 19.09333717 -1.77448174 19.09333717 -3 17 C-3.53789246 10.66941946 -3.5599517 5.48825887 0 0 Z " fill="#265FE2" transform="translate(44,79)"/>
<path d="M0 0 C0.33 0 0.66 0 1 0 C0.855625 1.27875 0.71125 2.5575 0.5625 3.875 C0.27550958 6.41805397 0.00364291 8.9582366 -0.21875 11.5078125 C-0.58006563 15.62422985 -1.0708884 19.54717135 -2.0625 23.5625 C-3.16081157 28.11845911 -3.14842109 32.32473576 -3 37 C0.96 37.66 4.92 38.32 9 39 C9 38.01 9 37.02 9 36 C7.02 36 5.04 36 3 36 C3 35.67 3 35.34 3 35 C4.9914056 34.61866701 6.99279077 34.28674418 9 34 C10 35 10 35 10.125 37.5 C10 40 10 40 9 41 C4.38162743 41.66794645 0.99408082 41.58833355 -3.0625 39.1875 C-7.69015868 31.57425507 -4.54388004 20.70968494 -3.0625 12.375 C-2.78889648 10.74498047 -2.78889648 10.74498047 -2.50976562 9.08203125 C-1.14364843 1.14364843 -1.14364843 1.14364843 0 0 Z " fill="#335BBB" transform="translate(394,70)"/>
<path d="M0 0 C0.66 0.66 1.32 1.32 2 2 C-1.05463187 3.52731594 -3.66338528 2.49228742 -7 2 C-12.6013785 1.74896889 -12.6013785 1.74896889 -18 3 C-18.33 3.66 -18.66 4.32 -19 5 C-18.01 4.67 -17.02 4.34 -16 4 C-13.93854893 3.931009 -11.87498599 3.91532273 -9.8125 3.9375 C-8.18248047 3.95103516 -8.18248047 3.95103516 -6.51953125 3.96484375 C-5.68808594 3.97644531 -4.85664063 3.98804687 -4 4 C-4 4.33 -4 4.66 -4 5 C-4.65226562 5.02578125 -5.30453125 5.0515625 -5.9765625 5.078125 C-14.01877732 5.60003865 -18.47904977 8.05436129 -24 14 C-24 12.68 -24 11.36 -24 10 C-23.34 10 -22.68 10 -22 10 C-21.67 8.68 -21.34 7.36 -21 6 C-21.99 5.34 -22.98 4.68 -24 4 C-16.60847452 -1.68578883 -8.90280681 -3.38796031 0 0 Z " fill="#2B5AC4" transform="translate(251,64)"/>
<path d="M0 0 C0.66 0 1.32 0 2 0 C2 2.64 2 5.28 2 8 C0.02 8.99 0.02 8.99 -2 10 C-2 10.66 -2 11.32 -2 12 C-1.01 12 -0.02 12 1 12 C2.0260734 10.68662604 3.02727325 9.35335895 4 8 C4.66 8 5.32 8 6 8 C4.59335278 11.39939744 3.16905621 13.11569631 0 15 C-4.47056457 16.57297642 -8.26857174 17.23080138 -13 17 C-10.66785852 15.79371992 -8.50357861 14.8345262 -6 14 C-12.27 13.67 -18.54 13.34 -25 13 C-25 12.67 -25 12.34 -25 12 C-24.01 11.96261719 -23.02 11.92523438 -22 11.88671875 C-10.69860185 11.8512594 -10.69860185 11.8512594 -1 7 C-0.63239269 4.67182036 -0.29758419 2.3381615 0 0 Z " fill="#2E5DC5" transform="translate(373,72)"/>
<path d="M0 0 C1.93681161 -0.08107583 3.8745934 -0.13922475 5.8125 -0.1875 C6.89144531 -0.22230469 7.97039062 -0.25710937 9.08203125 -0.29296875 C12.34916264 0.03505649 12.98777646 0.54483417 15 3 C15.680625 3.144375 16.36125 3.28875 17.0625 3.4375 C19 4 19 4 20.25 5.8125 C21 8 21 8 21 12 C19.02 12.33 17.04 12.66 15 13 C14.81824219 12.44570312 14.63648438 11.89140625 14.44921875 11.3203125 C14.19785156 10.59585938 13.94648438 9.87140625 13.6875 9.125 C13.44386719 8.40570313 13.20023437 7.68640625 12.94921875 6.9453125 C12.03664453 4.66005095 12.03664453 4.66005095 9 3 C6.72087062 2.54605448 6.72087062 2.54605448 4.3125 2.375 C3.50425781 2.30023438 2.69601562 2.22546875 1.86328125 2.1484375 C1.24839844 2.09945312 0.63351562 2.05046875 0 2 C0 1.34 0 0.68 0 0 Z " fill="#2563ED" transform="translate(285,65)"/>
<path d="M0 0 C0.33 0 0.66 0 1 0 C1.07347656 1.60681641 1.07347656 1.60681641 1.1484375 3.24609375 C1.22345294 4.64325639 1.2990013 6.0403905 1.375 7.4375 C1.42140625 8.49807617 1.42140625 8.49807617 1.46875 9.58007812 C1.57280629 11.39239188 1.77919892 13.19817988 2 15 C2.66 15.33 3.32 15.66 4 16 C3.67 16.99 3.34 17.98 3 19 C3.99 19 4.98 19 6 19 C5.67 18.01 5.34 17.02 5 16 C5.4375 13.3125 5.4375 13.3125 6 11 C6.226875 11.53625 6.45375 12.0725 6.6875 12.625 C8.43382056 15.78500863 10.6402849 18.2676983 13 21 C11.35 21 9.7 21 8 21 C7.67 21.66 7.34 22.32 7 23 C9.64 23.66 12.28 24.32 15 25 C14.67 25.66 14.34 26.32 14 27 C9.50316011 26.72746425 6.80116975 24.81095516 3.5859375 21.85546875 C0.05955939 17.72978007 -1.03934682 13.34264921 -0.94921875 7.9765625 C-0.71846048 5.29701122 -0.41222846 2.65713523 0 0 Z " fill="#2B59C7" transform="translate(265,84)"/>
<path d="M0 0 C0.33 0 0.66 0 1 0 C1.33 2.64 1.66 5.28 2 8 C1.01 8.495 1.01 8.495 0 9 C-0.103125 9.61875 -0.20625 10.2375 -0.3125 10.875 C-1.30328123 13.93741472 -3.26097814 14.49353798 -6 16 C-6.33 16.66 -6.66 17.32 -7 18 C-5.02 17.67 -3.04 17.34 -1 17 C-3.61154786 20.37965018 -6.93654831 21.32904044 -11 22 C-19.99658703 22.66894198 -19.99658703 22.66894198 -24 20 C-18.72 19.67 -13.44 19.34 -8 19 C-8.66 18.34 -9.32 17.68 -10 17 C-10.66 16.34 -11.32 15.68 -12 15 C-11.45730469 14.78085938 -10.91460937 14.56171875 -10.35546875 14.3359375 C-6.55054776 12.64943198 -4.40285705 11.61078326 -2.0625 8.0625 C-1.12530311 5.3611678 -0.4155758 2.82591542 0 0 Z " fill="#2F5DC7" transform="translate(70,107)"/>
<path d="M0 0 C0.66 0.33 1.32 0.66 2 1 C1.93981323 3.89799287 1.85272994 6.79096237 1.75 9.6875 C1.73582031 10.50412109 1.72164063 11.32074219 1.70703125 12.16210938 C1.49697625 17.35046785 0.87109303 20.19858665 -3 24 C-3.66 23.01 -4.32 22.02 -5 21 C-4.67 20.34 -4.34 19.68 -4 19 C-3.92934383 16.95944995 -3.91578024 14.91665743 -3.9375 12.875 C-3.94652344 11.77929688 -3.95554687 10.68359375 -3.96484375 9.5546875 C-3.97644531 8.71164063 -3.98804688 7.86859375 -4 7 C-3.34 7 -2.68 7 -2 7 C-1.855625 6.030625 -1.71125 5.06125 -1.5625 4.0625 C-1 1 -1 1 0 0 Z " fill="#2660EA" transform="translate(318,77)"/>
<path d="M0 0 C0.66 0 1.32 0 2 0 C2.19412181 1.47831221 2.38012131 2.95769316 2.5625 4.4375 C2.66691406 5.26121094 2.77132812 6.08492188 2.87890625 6.93359375 C2.91886719 7.61550781 2.95882812 8.29742187 3 9 C2.67 9.33 2.34 9.66 2 10 C1.76346477 12.52596259 1.57826308 15.03107207 1.4375 17.5625 C1.39431641 18.27341797 1.35113281 18.98433594 1.30664062 19.71679688 C1.20028223 21.47761912 1.09961154 23.2387832 1 25 C0.01 25 -0.98 25 -2 25 C-4.07831167 18.32752569 -3.97098432 14.22241302 -1.82421875 7.578125 C-1.02073343 5.06485337 -0.47117975 2.59382121 0 0 Z " fill="#2562E9" transform="translate(144,81)"/>
<path d="M0 0 C0 0.33 0 0.66 0 1 C-5.61 1 -11.22 1 -17 1 C-17 1.99 -17 2.98 -17 4 C-12.71 4 -8.42 4 -4 4 C-4 4.33 -4 4.66 -4 5 C-4.65226562 5.02578125 -5.30453125 5.0515625 -5.9765625 5.078125 C-14.01877732 5.60003865 -18.47904977 8.05436129 -24 14 C-24 12.35 -24 10.7 -24 9 C-23.01 9 -22.02 9 -21 9 C-20.40267181 6.23735711 -20 3.83967231 -20 1 C-12.70730434 -2.21736573 -7.5383151 -2.02696917 0 0 Z " fill="#2C5BC0" transform="translate(124,64)"/>
<path d="M0 0 C0.99 0 1.98 0 3 0 C3 0.99 3 1.98 3 3 C-0.9751534 4.87633173 -4.12157045 5.24376487 -8.5 5.1875 C-9.6034375 5.18105469 -10.706875 5.17460938 -11.84375 5.16796875 C-14.67226083 5.01744156 -17.24692555 4.64204162 -20 4 C-20 3.34 -20 2.68 -20 2 C-15.65548022 1.1561479 -11.60858018 0.91915739 -7.1875 1 C-5.12533699 1.03728204 -3.06195989 1.04719794 -1 1 C-0.67 0.67 -0.34 0.34 0 0 Z " fill="#2462E6" transform="translate(367,104)"/>
<path d="M0 0 C2.79224073 -0.08071788 5.58216566 -0.14035408 8.375 -0.1875 C9.1690625 -0.21263672 9.963125 -0.23777344 10.78125 -0.26367188 C12.85586148 -0.29004405 14.93100865 -0.15486462 17 0 C19 3 19 3 19 6 C18.15179688 5.68289062 17.30359375 5.36578125 16.4296875 5.0390625 C12.90522775 3.97128768 9.79329043 3.59958921 6.125 3.375 C4.97257812 3.30023438 3.82015625 3.22546875 2.6328125 3.1484375 C1.32957031 3.07496094 1.32957031 3.07496094 0 3 C0 2.01 0 1.02 0 0 Z " fill="#2362E7" transform="translate(107,65)"/>
<path d="M0 0 C1.125 3.75 1.125 3.75 0 6 C-0.66 6 -1.32 6 -2 6 C-2.33 10.29 -2.66 14.58 -3 19 C-3.99 19 -4.98 19 -6 19 C-6.56905158 7.15529673 -6.56905158 7.15529673 -3 2 C-2.01 1.34 -1.02 0.68 0 0 Z " fill="#2759CD" transform="translate(180,57)"/>
<path d="M0 0 C2.08218362 -0.10832169 4.16599129 -0.18573541 6.25 -0.25 C7.99023438 -0.31960937 7.99023438 -0.31960937 9.765625 -0.390625 C13 0 13 0 15.4375 1.875 C17 4 17 4 16.75 6.25 C16.5025 6.8275 16.255 7.405 16 8 C12.34683329 6.75023244 11.21934164 6.32901247 9 3 C6.57478506 2.41810734 6.57478506 2.41810734 3.875 2.3125 C2.96492188 2.24675781 2.05484375 2.18101563 1.1171875 2.11328125 C0.41851562 2.07589844 -0.28015625 2.03851563 -1 2 C-0.67 1.34 -0.34 0.68 0 0 Z " fill="#2562E8" transform="translate(360,65)"/>
<path d="M0 0 C0.78375 0.495 1.5675 0.99 2.375 1.5 C1.055 1.83 -0.265 2.16 -1.625 2.5 C-1.295 3.16 -0.965 3.82 -0.625 4.5 C-1.285 4.335 -1.945 4.17 -2.625 4 C-6.35599794 3.37816701 -9.84373378 3.43591074 -13.625 3.5 C-13.625 2.51 -13.625 1.52 -13.625 0.5 C-14.615 0.17 -15.605 -0.16 -16.625 -0.5 C-11.01341426 -2.37052858 -5.45214398 -2.25605958 0 0 Z " fill="#1F50C1" transform="translate(210.625,39.5)"/>
<path d="M0 0 C1.32 0 2.64 0 4 0 C4 0.99 4 1.98 4 3 C3.01 3 2.02 3 1 3 C1 3.66 1 4.32 1 5 C2.5159375 4.2265625 2.5159375 4.2265625 4.0625 3.4375 C7.9586629 1.73591049 10.84292572 2.06677924 15 3 C15 3.33 15 3.66 15 4 C13.02 4 11.04 4 9 4 C9 4.66 9 5.32 9 6 C7.35 6 5.7 6 4 6 C3.87625 6.61875 3.7525 7.2375 3.625 7.875 C3 10 3 10 1 12 C0.03929566 9.11788698 -0.10581883 7.30149956 -0.0625 4.3125 C-0.05347656 3.50425781 -0.04445313 2.69601563 -0.03515625 1.86328125 C-0.02355469 1.24839844 -0.01195312 0.63351563 0 0 Z " fill="#2660EB" transform="translate(319,65)"/>
<path d="M0 0 C6.93 0 13.86 0 21 0 C17.3558226 2.4294516 15.28758728 2.16179575 11 2 C11 2.66 11 3.32 11 4 C3.57142857 4.28571429 3.57142857 4.28571429 0 2 C0 1.34 0 0.68 0 0 Z " fill="#2362E7" transform="translate(225,85)"/>
<path d="M0 0 C0 0.99 0 1.98 0 3 C-0.99 3 -1.98 3 -3 3 C-3 3.99 -3 4.98 -3 6 C-7.82360189 6.19294408 -11.49646738 5.75747614 -16 4 C-15.67 3.34 -15.34 2.68 -15 2 C-12.56640625 1.62109375 -12.56640625 1.62109375 -9.5625 1.4375 C-6.22973936 1.2245857 -3.16158169 0 0 0 Z " fill="#275FDD" transform="translate(118,105)"/>
<path d="M0 0 C0.33 0 0.66 0 1 0 C1.042721 1.66611905 1.04063832 3.33382885 1 5 C0.67 5.33 0.34 5.66 0 6 C-0.23701239 8.85877909 -0.42219182 11.69883297 -0.5625 14.5625 C-0.60568359 15.36880859 -0.64886719 16.17511719 -0.69335938 17.00585938 C-0.79975262 19.00368805 -0.90040888 21.0018207 -1 23 C-0.34 23 0.32 23 1 23 C2.0625 24.8125 2.0625 24.8125 3 27 C2.67 27.99 2.34 28.98 2 30 C-2.7675535 23.07935782 -3.64569627 18.28643548 -3 10 C-2.21939741 6.57805608 -1.20124228 3.29626602 0 0 Z " fill="#2C5ABF" transform="translate(220,77)"/>
<path d="M0 0 C0.33 0 0.66 0 1 0 C1 1.98 1 3.96 1 6 C3.64 6.33 6.28 6.66 9 7 C9 7.99 9 8.98 9 10 C7.5629191 10.05422947 6.12524538 10.09289723 4.6875 10.125 C3.88699219 10.14820312 3.08648437 10.17140625 2.26171875 10.1953125 C0 10 0 10 -3 8 C-3.1875 5.375 -3.1875 5.375 -3 3 C-2.01 3 -1.02 3 0 3 C0 2.01 0 1.02 0 0 Z " fill="#2361E8" transform="translate(394,99)"/>
<path d="M0 0 C2.97 0.495 2.97 0.495 6 1 C5.84518205 3.70931419 5.51827919 5.46584039 3.59765625 7.4453125 C2.10228292 8.67679642 0.5537076 9.8429837 -1 11 C-0.34 9.35 0.32 7.7 1 6 C-0.98 6.33 -2.96 6.66 -5 7 C-3.35 4.69 -1.7 2.38 0 0 Z " fill="#2A5AC9" transform="translate(296,96)"/>
<path d="M0 0 C1.65 0.66 3.3 1.32 5 2 C4.34 3.65 3.68 5.3 3 7 C2.67 5.68 2.34 4.36 2 3 C-1.78496138 4.51398455 -2.0072198 5.0144396 -4 9 C-8.62 9 -13.24 9 -18 9 C-18 8.67 -18 8.34 -18 8 C-17.12988281 7.96132812 -17.12988281 7.96132812 -16.2421875 7.921875 C-9.29098507 7.41716723 -4.74246393 5.26940437 0 0 Z " fill="#315DC2" transform="translate(250,97)"/>
<path d="M0 0 C0.99 0.33 1.98 0.66 3 1 C2.36610765 4.49844386 0.94822306 6.84086876 -1.0625 9.75 C-1.61035156 10.54921875 -2.15820312 11.3484375 -2.72265625 12.171875 C-3.14417969 12.77515625 -3.56570312 13.3784375 -4 14 C-5.27066587 11.45866826 -5 9.87208633 -5 7 C-3.90625 5.17578125 -3.90625 5.17578125 -2.5 3.3125 C-2.0359375 2.68988281 -1.571875 2.06726563 -1.09375 1.42578125 C-0.7328125 0.95527344 -0.371875 0.48476562 0 0 Z " fill="#275ABB" transform="translate(172,82)"/>
<path d="M0 0 C1.32 0 2.64 0 4 0 C6.3992233 4.64849515 6.19957409 8.91086074 6 14 C4.68 14.33 3.36 14.66 2 15 C2 11.04 2 7.08 2 3 C1.34 3 0.68 3 0 3 C0 2.01 0 1.02 0 0 Z " fill="#2158CC" transform="translate(202,83)"/>
<path d="M0 0 C-1.61507834 3.61017511 -2.51748623 4.80513867 -6.25 6.3125 C-9.93274714 6.98767031 -13.26565314 7.15242232 -17 7 C-17.33 6.34 -17.66 5.68 -18 5 C-16.01432292 4.77213542 -14.02864583 4.54427083 -12.04296875 4.31640625 C-9.80603607 4.02829265 -9.80603607 4.02829265 -7 3 C-7 2.34 -7 1.68 -7 1 C-3.375 -1.125 -3.375 -1.125 0 0 Z " fill="#2564F1" transform="translate(298,102)"/>
<path d="M0 0 C3.50755794 3.50755794 4.125 7.5605227 4.125 12.375 C4.08375 13.57125 4.0425 14.7675 4 16 C3.01 16 2.02 16 1 16 C-0.57300962 10.26696495 -1.24327778 5.84340558 0 0 Z " fill="#2562EC" transform="translate(267,87)"/>
<path d="M0 0 C4.29 0.33 8.58 0.66 13 1 C13 1.66 13 2.32 13 3 C11 5 11 5 8.6171875 5.1953125 C7.71226563 5.17210938 6.80734375 5.14890625 5.875 5.125 C4.50988281 5.09792969 4.50988281 5.09792969 3.1171875 5.0703125 C2.41851562 5.04710938 1.71984375 5.02390625 1 5 C0.67 3.35 0.34 1.7 0 0 Z " fill="#215EE5" transform="translate(51,104)"/>
<path d="M0 0 C-7.56467182 5.04311454 -17.24698792 4.24695018 -26 4 C-26 3.67 -26 3.34 -26 3 C-22.04 3 -18.08 3 -14 3 C-14 2.34 -14 1.68 -14 1 C-12.41913952 0.63495397 -10.83516093 0.28339494 -9.25 -0.0625 C-7.92742187 -0.35833984 -7.92742187 -0.35833984 -6.578125 -0.66015625 C-4.01320972 -0.99825872 -2.42908361 -0.81158635 0 0 Z " fill="#2956C3" transform="translate(250,86)"/>
<path d="M0 0 C0 0.99 0 1.98 0 3 C-2.77100394 4.38550197 -4.9334706 4.1877467 -8 4 C-8.99 3.34 -9.98 2.68 -11 2 C-11 1.34 -11 0.68 -11 0 C-7.01803543 -1.05404945 -4.01804691 -0.84098656 0 0 Z " fill="#2964DE" transform="translate(62,123)"/>
<path d="M0 0 C1.32 0 2.64 0 4 0 C4 0.66 4 1.32 4 2 C3.34 2 2.68 2 2 2 C2 3.65 2 5.3 2 7 C1.34 7 0.68 7 0 7 C0 7.99 0 8.98 0 10 C-0.99 10.33 -1.98 10.66 -3 11 C-2.88590407 9.54077307 -2.75834456 8.08259402 -2.625 6.625 C-2.55539062 5.81289062 -2.48578125 5.00078125 -2.4140625 4.1640625 C-2 2 -2 2 0 0 Z " fill="#2762E7" transform="translate(271,74)"/>
<path d="M0 0 C1.299375 -0.02126953 1.299375 -0.02126953 2.625 -0.04296875 C5 0.1875 5 0.1875 8 2.1875 C7.13117188 2.24808594 6.26234375 2.30867188 5.3671875 2.37109375 C4.21476562 2.45488281 3.06234375 2.53867188 1.875 2.625 C0.73804688 2.70621094 -0.39890625 2.78742188 -1.5703125 2.87109375 C-4.7540478 3.16480965 -7.85510907 3.61874313 -11 4.1875 C-7.67302146 0.54366636 -4.82795286 0.03592227 0 0 Z " fill="#2E5AC1" transform="translate(63,62.8125)"/>
<path d="M0 0 C3.96 0.33 7.92 0.66 12 1 C12.33 2.32 12.66 3.64 13 5 C12 6 12 6 10.15234375 6.09765625 C8.1015625 6.06510417 6.05078125 6.03255208 4 6 C4 5.67 4 5.34 4 5 C5.98 4.67 7.96 4.34 10 4 C9.36191406 3.87882812 8.72382813 3.75765625 8.06640625 3.6328125 C7.24011719 3.46523437 6.41382813 3.29765625 5.5625 3.125 C4.73878906 2.96257812 3.91507813 2.80015625 3.06640625 2.6328125 C2.38449219 2.42398438 1.70257813 2.21515625 1 2 C0.67 1.34 0.34 0.68 0 0 Z " fill="#2551B1" transform="translate(185,84)"/>
<path d="M0 0 C0.33 0.66 0.66 1.32 1 2 C3.02463255 2.65213292 3.02463255 2.65213292 5 3 C3.66666667 6.33333333 2.33333333 9.66666667 1 13 C0.67 13 0.34 13 0 13 C0.875 6.25 0.875 6.25 2 4 C0.02 4.99 -1.96 5.98 -4 7 C-2.92598892 4.08482708 -2.22189824 2.22189824 0 0 Z " fill="#2A5CC3" transform="translate(347,71)"/>
<path d="M0 0 C2 2 2 2 2.265625 4.53125 C2.25789062 6.00078125 2.25789062 6.00078125 2.25 7.5 C2.25515625 8.4796875 2.2603125 9.459375 2.265625 10.46875 C2 13 2 13 0 15 C-1.60116168 10.19651495 -1.6117046 4.8351138 0 0 Z " fill="#2756BD" transform="translate(219,50)"/>
<path d="M0 0 C0.61875 0.28875 1.2375 0.5775 1.875 0.875 C6.15866124 2.41711805 10.52928212 3.18398547 15 4 C14.67 4.66 14.34 5.32 14 6 C5.9870188 6.78558639 5.9870188 6.78558639 1.9375 3.5625 C0 1 0 1 0 0 Z " fill="#1E5BD3" transform="translate(181,83)"/>
<path d="M0 0 C2.97 0 5.94 0 9 0 C8.01 0.495 8.01 0.495 7 1 C6.67 1.99 6.34 2.98 6 4 C3.69 4.33 1.38 4.66 -1 5 C-0.67 3.35 -0.34 1.7 0 0 Z " fill="#1C5CE1" transform="translate(139,65)"/>
<path d="M0 0 C0.66 0.33 1.32 0.66 2 1 C1.67 4.96 1.34 8.92 1 13 C-1.04691418 9.92962873 -2.1932182 7.59384618 -3 4 C-1.625 1.625 -1.625 1.625 0 0 Z " fill="#275AD3" transform="translate(77,93)"/>
<path d="M0 0 C0.33 0 0.66 0 1 0 C0.03644647 12.66970387 0.03644647 12.66970387 -1 18 C-1.33 18 -1.66 18 -2 18 C-2.33 13.38 -2.66 8.76 -3 4 C-2.34 3.67 -1.68 3.34 -1 3 C-0.67 2.01 -0.34 1.02 0 0 Z " fill="#2B5CCB" transform="translate(399,70)"/>
<path d="M0 0 C2.96883153 2.39421898 3.93484821 3.73939283 4.875 7.5 C4.99513447 10.86376511 4.85376666 12.27387255 3 15 C1.69523918 10.84107487 0.87918115 7.34947869 1 3 C0.67 2.01 0.34 1.02 0 0 Z " fill="#2760C0" transform="translate(253,66)"/>
<path d="M0 0 C2.375 -0.125 2.375 -0.125 5 0 C5.66 0.66 6.32 1.32 7 2 C9.65537372 2.56520003 12.29144713 2.73788198 15 3 C15 3.33 15 3.66 15 4 C10.05 4.33 5.1 4.66 0 5 C0 3.35 0 1.7 0 0 Z " fill="#2255D1" transform="translate(345,86)"/>
<path d="M0 0 C1.32 1.32 2.64 2.64 4 4 C3.01 4 2.02 4 1 4 C0.67 4.99 0.34 5.98 0 7 C-0.515625 6.690625 -1.03125 6.38125 -1.5625 6.0625 C-4.66665423 4.70940713 -7.65115007 4.38640576 -11 4 C-7.36576791 1.67409146 -4.22911669 1.83734167 0 2 C0 1.34 0 0.68 0 0 Z " fill="#2559BE" transform="translate(71,65)"/>
<path d="M0 0 C0.33 0.99 0.66 1.98 1 3 C2.65 3 4.3 3 6 3 C2.67692308 7.8 2.67692308 7.8 -0.75 8.8125 C-1.4925 8.874375 -2.235 8.93625 -3 9 C-2.34 7.68 -1.68 6.36 -1 5 C-1.66 4.34 -2.32 3.68 -3 3 C-2.01 2.01 -1.02 1.02 0 0 Z " fill="#2F5CC8" transform="translate(123,78)"/>
<path d="M0 0 C1.9451 2.91765 2.45276317 4.62537285 3 8 C0.69 8.33 -1.62 8.66 -4 9 C-3.67 7.68 -3.34 6.36 -3 5 C-2.34 5 -1.68 5 -1 5 C-0.67 3.35 -0.34 1.7 0 0 Z " fill="#2560E5" transform="translate(127,73)"/>
<path d="M0 0 C-0.99 3.96 -1.98 7.92 -3 12 C-5.32528287 9.67471713 -5.29511025 9.15334102 -5.3125 6 C-5.32925781 5.29875 -5.34601562 4.5975 -5.36328125 3.875 C-5.24339844 3.25625 -5.12351563 2.6375 -5 2 C-2 0 -2 0 0 0 Z " fill="#275CC4" transform="translate(50,77)"/>
<path d="M0 0 C2.62386487 3.06117568 3 3.73173127 3 8 C1.02 8.33 -0.96 8.66 -3 9 C-3.33 7.68 -3.66 6.36 -4 5 C-3.01 5.33 -2.02 5.66 -1 6 C-0.67 4.02 -0.34 2.04 0 0 Z " fill="#2D58C0" transform="translate(303,69)"/>
<path d="M0 0 C0.66 0.33 1.32 0.66 2 1 C1.34 2.65 0.68 4.3 0 6 C-0.99 6 -1.98 6 -3 6 C-3 6.99 -3 7.98 -3 9 C-3.99 9.33 -4.98 9.66 -6 10 C-5.62403791 7.21788056 -5.32681541 5.4120716 -3.5625 3.1875 C-2 2 -2 2 0 2 C0 1.34 0 0.68 0 0 Z " fill="#2461EA" transform="translate(103,67)"/>
<path d="M0 0 C5.94 0.99 5.94 0.99 12 2 C12.33 2.99 12.66 3.98 13 5 C11.3934324 4.74379316 9.7897517 4.46944129 8.1875 4.1875 C7.29417969 4.03667969 6.40085938 3.88585937 5.48046875 3.73046875 C3 3 3 3 0 0 Z " fill="#295CBF" transform="translate(223,107)"/>
<path d="M0 0 C0.66 0.33 1.32 0.66 2 1 C1.67 3.31 1.34 5.62 1 8 C0.01 7.67 -0.98 7.34 -2 7 C-2 10.3 -2 13.6 -2 17 C-2.33 17 -2.66 17 -3 17 C-3.55353075 5.47835991 -3.55353075 5.47835991 0 0 Z " fill="#2461E8" transform="translate(44,79)"/>
<path d="M0 0 C0 0.66 0 1.32 0 2 C-3.31371 4.20914 -4.3446021 4.22481553 -8.1875 4.125 C-9.08855469 4.10695313 -9.98960937 4.08890625 -10.91796875 4.0703125 C-11.60503906 4.04710938 -12.29210937 4.02390625 -13 4 C-13 3.34 -13 2.68 -13 2 C-12.06027344 1.90912109 -12.06027344 1.90912109 -11.1015625 1.81640625 C-9.87566406 1.69072266 -9.87566406 1.69072266 -8.625 1.5625 C-7.81289063 1.48128906 -7.00078125 1.40007812 -6.1640625 1.31640625 C-3.85304959 0.97851447 -2.33455672 0 0 0 Z " fill="#2D5DC1" transform="translate(291,103)"/>
<path d="M0 0 C0.66 0 1.32 0 2 0 C2.66 3.96 3.32 7.92 4 12 C0 10 0 10 -1 7 C-0.72230092 4.6593935 -0.39460023 2.32375692 0 0 Z " fill="#295BC6" transform="translate(95,90)"/>
<path d="M0 0 C0.99 0.33 1.98 0.66 3 1 C2 4 2 4 0 5 C-2.6723621 5.13415472 -5.32250488 5.04318541 -8 5 C-5.77077045 2.77077045 -3.90864722 2.11871047 -1 1 C-0.67 0.67 -0.34 0.34 0 0 Z " fill="#2561E8" transform="translate(120,82)"/>
<path d="M0 0 C0.33 0 0.66 0 1 0 C1.05394705 2.60444348 1.09364469 5.20776998 1.125 7.8125 C1.14175781 8.55048828 1.15851563 9.28847656 1.17578125 10.04882812 C1.21074628 13.91246426 1.19397555 15.70903668 -1 19 C-1.66 19 -2.32 19 -3 19 C-2.690625 18.0925 -2.38125 17.185 -2.0625 16.25 C-0.52310987 10.95493464 -0.34179698 5.47774637 0 0 Z " fill="#2F5CC5" transform="translate(74,77)"/>
<path d="M0 0 C2.3125 1.0625 2.3125 1.0625 4 2 C1.98177083 1.90234375 -0.03645833 1.8046875 -2.0546875 1.70703125 C-2.69664062 1.80371094 -3.33859375 1.90039062 -4 2 C-4.99 3.485 -4.99 3.485 -6 5 C-6.99 3.68 -7.98 2.36 -9 1 C-5.6329035 -1.12002372 -3.78454048 -1.13536214 0 0 Z " fill="#1E57C3" transform="translate(156,68)"/>
<path d="M0 0 C1.98 0 3.96 0 6 0 C6 0.66 6 1.32 6 2 C4.35 2.33 2.7 2.66 1 3 C2.32 3.66 3.64 4.32 5 5 C4.67 5.66 4.34 6.32 4 7 C2.35 6.67 0.7 6.34 -1 6 C-0.67 4.02 -0.34 2.04 0 0 Z " fill="#2E5CB9" transform="translate(388,63)"/>
<path d="M0 0 C2.64 0 5.28 0 8 0 C8 1.33333333 8 2.66666667 8 4 C5.03 4 2.06 4 -1 4 C-0.34 3.67 0.32 3.34 1 3 C0.67 2.01 0.34 1.02 0 0 Z " fill="#2852B3" transform="translate(176,121)"/>
<path d="M0 0 C7.24531618 -0.47166615 12.06182175 -0.38908827 18 4 C18.33 4.66 18.66 5.32 19 6 C16.49936635 5.53691969 14.97626943 4.98324901 12.875 3.5 C8.733367 1.339148 4.61151425 1.2596775 0 1 C0 0.67 0 0.34 0 0 Z " fill="#335BB4" transform="translate(284,63)"/>
<path d="M0 0 C1.65 0 3.3 0 5 0 C4.34 2.31 3.68 4.62 3 7 C2.01 6.67 1.02 6.34 0 6 C0 4.02 0 2.04 0 0 Z " fill="#2461E4" transform="translate(148,53)"/>
<path d="M0 0 C0.33 0.99 0.66 1.98 1 3 C-0.32 2.67 -1.64 2.34 -3 2 C-2.67 4.31 -2.34 6.62 -2 9 C-4 7.1875 -4 7.1875 -6 5 C-6 4.01 -6 3.02 -6 2 C-2.25 0 -2.25 0 0 0 Z " fill="#3259BD" transform="translate(43,115)"/>
<path d="M0 0 C0.33 0 0.66 0 1 0 C1 3.3 1 6.6 1 10 C0.01 10 -0.98 10 -2 10 C-1.85950482 8.52031676 -1.71245174 7.04125484 -1.5625 5.5625 C-1.48128906 4.73878906 -1.40007812 3.91507812 -1.31640625 3.06640625 C-1 1 -1 1 0 0 Z " fill="#265ADA" transform="translate(163,98)"/>
<path d="M0 0 C0.33 0.99 0.66 1.98 1 3 C1.33 2.34 1.66 1.68 2 1 C2.66 1 3.32 1 4 1 C3.25 3.4375 3.25 3.4375 2 6 C-0.125 6.8125 -0.125 6.8125 -2 7 C-1.125 1.125 -1.125 1.125 0 0 Z " fill="#2856AA" transform="translate(209,74)"/>
<path d="M0 0 C-0.8125 2.9375 -0.8125 2.9375 -2 6 C-2.99 6.33 -3.98 6.66 -5 7 C-6.125 3.25 -6.125 3.25 -5 1 C-2 0 -2 0 0 0 Z " fill="#2B5FE2" transform="translate(283,66)"/>
<path d="M0 0 C0 0.99 0 1.98 0 3 C-0.99 3 -1.98 3 -3 3 C-3 3.66 -3 4.32 -3 5 C-5.97 4.505 -5.97 4.505 -9 4 C-8 2 -8 2 -5.0625 0.875 C-2 0 -2 0 0 0 Z " fill="#2665EC" transform="translate(118,105)"/>
<path d="M0 0 C-1.485 2.475 -1.485 2.475 -3 5 C-4.32 4.34 -5.64 3.68 -7 3 C-7 2.34 -7 1.68 -7 1 C-3.375 -1.125 -3.375 -1.125 0 0 Z " fill="#2A61E5" transform="translate(298,102)"/>
<path d="M0 0 C2.45823172 3.68734758 3.01242616 6.69699971 4 11 C3.01 10.67 2.02 10.34 1 10 C-0.60725635 6.78548731 -0.05748185 3.56387464 0 0 Z " fill="#2E5BC0" transform="translate(139,97)"/>
<path d="M0 0 C1.65 1.32 3.3 2.64 5 4 C3.35 4 1.7 4 0 4 C0 6.97 0 9.94 0 13 C-0.33 13 -0.66 13 -1 13 C-1.22151549 11.20991533 -1.42682213 9.41781838 -1.625 7.625 C-1.74101562 6.62726563 -1.85703125 5.62953125 -1.9765625 4.6015625 C-1.98429688 3.74304688 -1.99203125 2.88453125 -2 2 C-1.34 1.34 -0.68 0.68 0 0 Z " fill="#1F58D5" transform="translate(224,85)"/>
<path d="M0 0 C1.98 0 3.96 0 6 0 C6.33 1.32 6.66 2.64 7 4 C5.35 4 3.7 4 2 4 C1.34 2.68 0.68 1.36 0 0 Z " fill="#2458CD" transform="translate(170,120)"/>
<path d="M0 0 C0.33 0.99 0.66 1.98 1 3 C-0.4375 5.1875 -0.4375 5.1875 -2 7 C-3.32 6.67 -4.64 6.34 -6 6 C-4 4 -2 2 0 0 Z " fill="#2563EA" transform="translate(376,78)"/>
<path d="M0 0 C1.98 0 3.96 0 6 0 C5.46375 0.391875 4.9275 0.78375 4.375 1.1875 C1.50791468 3.3755388 -1.23964568 5.67879296 -4 8 C-3.49396008 5.83125748 -3.00016187 4.00032373 -2 2 C-1.34 2 -0.68 2 0 2 C0 1.34 0 0.68 0 0 Z " fill="#2B59C2" transform="translate(54,69)"/>
<path d="M0 0 C0.33 0 0.66 0 1 0 C1 1.65 1 3.3 1 5 C4.3 5.66 7.6 6.32 11 7 C11 7.33 11 7.66 11 8 C9.54207116 8.05399736 8.08357288 8.09279177 6.625 8.125 C5.81289063 8.14820312 5.00078125 8.17140625 4.1640625 8.1953125 C2 8 2 8 0 6 C-0.125 2.875 -0.125 2.875 0 0 Z " fill="#2A59C7" transform="translate(390,102)"/>
<path d="M0 0 C2.97 0.495 2.97 0.495 6 1 C6 1.99 6 2.98 6 4 C4.68 4.33 3.36 4.66 2 5 C2 4.34 2 3.68 2 3 C1.34 3 0.68 3 0 3 C0 2.01 0 1.02 0 0 Z " fill="#255BE9" transform="translate(56,122)"/>
<path d="M0 0 C0.99 0 1.98 0 3 0 C3 1.32 3 2.64 3 4 C2.01 4 1.02 4 0 4 C-0.33 4.99 -0.66 5.98 -1 7 C-1.33 6.34 -1.66 5.68 -2 5 C-1.0625 2.375 -1.0625 2.375 0 0 Z " fill="#245DD3" transform="translate(211,71)"/>
<path d="M0 0 C0 0.66 0 1.32 0 2 C0.66 2.33 1.32 2.66 2 3 C-1.28976808 4.09658936 -2.71303767 3.79953138 -6 3 C-6 2.34 -6 1.68 -6 1 C-4 0 -4 0 0 0 Z " fill="#2863EA" transform="translate(353,105)"/>
</svg>
